<svg width="111" height="111" viewBox="0 0 111 111" fill="none" xmlns="http://www.w3.org/2000/svg">
<g opacity="0.2" clip-path="url(#clip0)">
<path d="M95.9397 63.4072L93.4868 71.4902C93.4177 71.7174 93.2364 71.8937 93.0071 71.9555C92.7839 72.0273 92.532 71.9574 92.3586 71.7962L86.1761 66.0739C85.8963 65.8149 85.879 65.3785 86.138 65.0987C86.3961 64.8192 86.8343 64.8015 87.1132 65.0607L91.2264 68.8677C89.2613 63.3361 82.6674 47.1337 71.7563 43.4616C66.7081 41.763 61.3066 42.9797 55.7029 47.0798C30.7683 65.3235 12.5573 41.2661 12.3763 41.0206C12.1496 40.7141 12.2157 40.2825 12.5213 40.056C12.5986 39.9989 12.6838 39.9598 12.7716 39.939C13.0321 39.8773 13.3161 39.9708 13.4858 40.2001C14.1922 41.155 31.0718 63.391 54.8882 45.967C60.8756 41.5871 66.7002 40.3042 72.1965 42.1547C84.3239 46.2356 91.1049 64.1305 92.7737 69.0894L94.6194 63.0061C94.6932 62.7627 94.8904 62.5893 95.1205 62.5348C95.2351 62.5077 95.3584 62.5096 95.4796 62.5462C95.8453 62.6572 96.0509 63.0424 95.9397 63.4072Z" fill="#303030"/>
</g>
<defs>
<clipPath id="clip0">
<rect width="92" height="92" fill="white" transform="matrix(0.973087 -0.230438 -0.230438 -0.973087 21.2002 110.724)"/>
</clipPath>
</defs>
</svg>
