<svg width="45" height="45" viewBox="0 0 45 45" fill="none" xmlns="http://www.w3.org/2000/svg">
<path d="M24.8203 32.1637C24.7437 32.2341 24.6572 32.2833 24.5756 32.3437H24.6094V38.6719C24.6094 38.8109 24.5682 38.9469 24.491 39.0625C24.4138 39.1782 24.304 39.2683 24.1755 39.3216C24.0902 39.3571 23.9987 39.3753 23.9062 39.375C23.7198 39.375 23.541 39.3009 23.4091 39.169L21.7969 37.5567V41.8964L23.4091 40.2841C23.541 40.1523 23.7198 40.0783 23.9062 40.0783C24.0927 40.0783 24.2715 40.1523 24.4034 40.2841L26.0156 41.8964V31.7517C25.8813 31.7769 25.7456 31.7941 25.6092 31.803C25.3127 31.8294 25.0342 31.9567 24.8203 32.1637Z" fill="#F5F5F7"/>
<path d="M23.2031 32.9695C22.972 33.0193 22.7364 33.0452 22.5 33.0469C21.6446 33.0462 20.8191 32.732 20.1797 32.1637C19.9665 31.9573 19.6891 31.83 19.3936 31.803C19.2563 31.7942 19.1196 31.7771 18.9844 31.7517V36.9745L20.5966 35.3623C20.7285 35.2304 20.9073 35.1564 21.0938 35.1564C21.2802 35.1564 21.459 35.2304 21.5909 35.3623L23.2031 36.9745V32.9695Z" fill="#F5F5F7"/>
<path d="M28.2994 23.9231C27.8718 23.4668 27.619 22.8742 27.5857 22.2497C27.569 21.7184 27.3504 21.2134 26.9744 20.8376C26.5985 20.4618 26.0934 20.2433 25.5621 20.2268C24.9379 20.1933 24.3455 19.9406 23.8894 19.5131C23.5019 19.1826 23.0093 19.0011 22.5 19.0011C21.9907 19.0011 21.4981 19.1826 21.1106 19.5131C20.6545 19.9406 20.0621 20.1933 19.4379 20.2268C18.9066 20.2433 18.4015 20.4618 18.0256 20.8376C17.6496 21.2134 17.431 21.7184 17.4143 22.2497C17.381 22.8742 17.1282 23.4668 16.7006 23.9231C16.36 24.3058 16.1718 24.8002 16.1718 25.3125C16.1718 25.8248 16.36 26.3192 16.7006 26.7019C17.1281 27.158 17.3808 27.7504 17.4143 28.3746C17.4309 28.9061 17.6494 29.4112 18.0253 29.7872C18.4013 30.1631 18.9065 30.3816 19.4379 30.3982C20.0621 30.4317 20.6545 30.6844 21.1106 31.1119C21.4981 31.4424 21.9907 31.6239 22.5 31.6239C23.0093 31.6239 23.5019 31.4424 23.8894 31.1119C24.3455 30.6844 24.9379 30.4317 25.5621 30.3982C26.0935 30.3816 26.5987 30.1631 26.9747 29.7872C27.3506 29.4112 27.5691 28.9061 27.5857 28.3746C27.6192 27.7504 27.8719 27.158 28.2994 26.7019C28.64 26.3192 28.8282 25.8248 28.8282 25.3125C28.8282 24.8002 28.64 24.3058 28.2994 23.9231ZM22.5 29.5313C21.6656 29.5313 20.85 29.2838 20.1562 28.8203C19.4624 28.3567 18.9217 27.6978 18.6024 26.9269C18.2831 26.1561 18.1995 25.3078 18.3623 24.4895C18.5251 23.6711 18.9269 22.9194 19.5169 22.3294C20.1069 21.7394 20.8586 21.3376 21.677 21.1748C22.4953 21.012 23.3436 21.0956 24.1144 21.4149C24.8853 21.7342 25.5442 22.2749 26.0078 22.9687C26.4713 23.6625 26.7187 24.4781 26.7187 25.3125C26.7176 26.431 26.2728 27.5034 25.4819 28.2944C24.6909 29.0853 23.6185 29.5301 22.5 29.5313Z" fill="#F5F5F7"/>
<path d="M22.5 28.125C24.0533 28.125 25.3125 26.8658 25.3125 25.3125C25.3125 23.7592 24.0533 22.5 22.5 22.5C20.9467 22.5 19.6875 23.7592 19.6875 25.3125C19.6875 26.8658 20.9467 28.125 22.5 28.125Z" fill="#F5F5F7"/>
<path opacity="0.4" d="M16.0095 22.2026C16.0378 21.3148 16.4031 20.4712 17.0313 19.8433C17.6594 19.2153 18.503 18.8501 19.3908 18.822C19.6863 18.795 19.9637 18.6677 20.1769 18.4613C20.8253 17.9098 21.6488 17.607 22.5 17.607C23.3512 17.607 24.1747 17.9098 24.8231 18.4613C25.0363 18.6677 25.3137 18.795 25.6092 18.822C26.497 18.8501 27.3406 19.2153 27.9688 19.8433C28.5969 20.4712 28.9622 21.3148 28.9905 22.2026C29.0175 22.4983 29.1448 22.7759 29.3512 22.9894C29.8909 23.593 30.2022 24.3666 30.2309 25.1757C30.2597 25.9849 30.0042 26.7786 29.5087 27.4191H37.3359C37.4753 26.7444 37.8093 26.1255 38.2967 25.6386C38.784 25.1518 39.4034 24.8184 40.0781 24.6797V7.66406C39.403 7.52517 38.7834 7.19138 38.296 6.70399C37.8086 6.2166 37.4748 5.59701 37.3359 4.92188H7.66406C7.52517 5.59701 7.19138 6.2166 6.70399 6.70399C6.2166 7.19138 5.59701 7.52517 4.92188 7.66406V24.6797C5.59701 24.8186 6.2166 25.1524 6.70399 25.6398C7.19138 26.1271 7.52517 26.7467 7.66406 27.4219H15.4913C14.9958 26.7815 14.7403 25.9877 14.7691 25.1786C14.7978 24.3694 15.1091 23.5958 15.6488 22.9922C15.8558 22.778 15.9831 22.4993 16.0095 22.2026ZM35.8594 26.0156H31.6406V24.6094H35.8594V26.0156ZM16.1719 6.32812H28.8281V7.73438H16.1719V6.32812ZM11.9531 9.14062H33.0469V10.5469H11.9531V9.14062ZM13.3594 26.0156H9.14062V24.6094H13.3594V26.0156ZM9.14062 13.3594V11.9531H35.8594V13.3594H9.14062Z" fill="#F5F5F7"/>
<path d="M42.1875 2.10938H2.8125C2.62602 2.10938 2.44718 2.18345 2.31532 2.31532C2.18345 2.44718 2.10938 2.62602 2.10938 2.8125V29.5312C2.10938 29.7177 2.18345 29.8966 2.31532 30.0284C2.44718 30.1603 2.62602 30.2344 2.8125 30.2344H16.5888C16.3123 29.8098 16.1321 29.3298 16.0608 28.8281H7.03125C6.84477 28.8281 6.66593 28.754 6.53407 28.6222C6.4022 28.4903 6.32812 28.3115 6.32812 28.125C6.32812 27.5656 6.10589 27.029 5.7103 26.6334C5.31472 26.2379 4.77819 26.0156 4.21875 26.0156C4.03227 26.0156 3.85343 25.9415 3.72157 25.8097C3.5897 25.6778 3.51562 25.499 3.51562 25.3125V7.03125C3.51562 6.84477 3.5897 6.66593 3.72157 6.53407C3.85343 6.4022 4.03227 6.32812 4.21875 6.32812C4.77819 6.32812 5.31472 6.10589 5.7103 5.7103C6.10589 5.31472 6.32812 4.77819 6.32812 4.21875C6.32812 4.03227 6.4022 3.85343 6.53407 3.72157C6.66593 3.5897 6.84477 3.51562 7.03125 3.51562H37.9688C38.1552 3.51562 38.3341 3.5897 38.4659 3.72157C38.5978 3.85343 38.6719 4.03227 38.6719 4.21875C38.6719 4.77819 38.8941 5.31472 39.2897 5.7103C39.6853 6.10589 40.2218 6.32812 40.7812 6.32812C40.9677 6.32812 41.1466 6.4022 41.2784 6.53407C41.4103 6.66593 41.4844 6.84477 41.4844 7.03125V25.3125C41.4844 25.499 41.4103 25.6778 41.2784 25.8097C41.1466 25.9415 40.9677 26.0156 40.7812 26.0156C40.2218 26.0156 39.6853 26.2379 39.2897 26.6334C38.8941 27.029 38.6719 27.5656 38.6719 28.125C38.6719 28.3115 38.5978 28.4903 38.4659 28.6222C38.3341 28.754 38.1552 28.8281 37.9688 28.8281H28.9392C28.8679 29.3298 28.6877 29.8098 28.4112 30.2344H42.1875C42.374 30.2344 42.5528 30.1603 42.6847 30.0284C42.8165 29.8966 42.8906 29.7177 42.8906 29.5312V2.8125C42.8906 2.62602 42.8165 2.44718 42.6847 2.31532C42.5528 2.18345 42.374 2.10938 42.1875 2.10938Z" fill="#F5F5F7"/>
</svg>
