<svg width="45" height="45" viewBox="0 0 45 45" fill="none" xmlns="http://www.w3.org/2000/svg">
<path opacity="0.4" d="M14.9811 31.0934C15.1997 30.8902 15.3337 30.6123 15.3566 30.3148C15.397 29.8288 15.1405 29.3665 14.707 29.1433C14.2734 28.9201 13.7481 28.9802 13.376 29.2954L10.8452 31.2526C10.4873 31.5744 10.3551 32.0781 10.5088 32.5343C10.6625 32.9904 11.0726 33.3114 11.5522 33.351C11.8707 33.379 12.1872 33.2778 12.4303 33.07L14.2925 31.6308L14.9811 31.0934Z" fill="#F5F5F7"/>
<path opacity="0.4" d="M11.2071 28.2606C11.1052 27.9661 10.8393 27.7593 10.5288 27.733C10.5068 27.7314 10.4849 27.7306 10.4629 27.7306C10.2772 27.7302 10.0974 27.7961 9.95594 27.9166L7.94623 29.4704C7.71841 29.6829 7.6372 30.0096 7.73907 30.3039C7.84093 30.5983 8.10663 30.8049 8.41706 30.8312C8.62509 30.852 8.83243 30.7858 8.98993 30.6484L10.9996 29.0945C11.2276 28.882 11.3089 28.5551 11.2071 28.2606Z" fill="#F5F5F7"/>
<path d="M0 6.85661V24.0502L1.61279 24.9716L8.97152 13.7168L0 6.85661Z" fill="#F5F5F7"/>
<path opacity="0.4" d="M17.8087 32.2467C17.7073 31.9516 17.441 31.7442 17.1301 31.7179C17.1079 31.7157 17.0857 31.7146 17.0634 31.7147C16.8778 31.7145 16.6983 31.7808 16.5572 31.9015L15.9898 32.3443C15.9837 32.3496 15.9795 32.3561 15.9734 32.3613L15.4193 32.7896L13.5408 34.2557C13.3939 34.3885 13.3042 34.573 13.2905 34.7705C13.2723 34.9784 13.3385 35.1848 13.4741 35.3434C13.6087 35.5027 13.8012 35.6019 14.0091 35.6192C14.217 35.6364 14.4231 35.5702 14.5821 35.4352L15.6547 34.5982L15.6565 34.5964L15.719 34.5481L17.5987 33.0811C17.8278 32.8691 17.9101 32.5419 17.8087 32.2467Z" fill="#F5F5F7"/>
<path d="M10.2514 14.6956L3.0105 25.7701L4.56871 26.6603L11.7711 15.8575L10.2514 14.6956Z" fill="#F5F5F7"/>
<path opacity="0.4" d="M36.0286 13.717L43.3872 24.9716L45 24.0502V6.85661L36.0286 13.717Z" fill="#F5F5F7"/>
<path opacity="0.4" d="M29.9432 18.8631C29.769 18.9119 29.5833 18.8991 29.4174 18.827L26.233 17.4709C23.5892 16.982 22.6185 17.5933 22.3831 17.795C22.3522 17.8213 22.3238 17.8505 22.2984 17.8821C22.2655 17.9471 22.2199 18.0047 22.1642 18.0517C21.6452 18.4888 21.0796 18.8675 20.4778 19.1809C20.1948 19.3286 20.0418 19.6441 20.1011 19.9578C20.1485 20.2573 20.3893 20.4888 20.6904 20.5243C21.9813 20.6935 23.293 20.4626 24.4485 19.8628C24.7077 19.7146 25.0276 19.7221 25.2795 19.8824L27.6435 21.3858C27.6825 21.3975 27.7203 21.4122 27.7569 21.4298L35.704 26.5487C35.799 26.6199 35.8894 26.697 35.9747 26.7796L37.5373 25.2175L32.7832 18.0887L29.9432 18.8631Z" fill="#F5F5F7"/>
<path opacity="0.4" d="M33.2282 15.8584L40.4313 26.6603L41.9895 25.7701L34.7487 14.6956L33.2282 15.8584Z" fill="#F5F5F7"/>
<path opacity="0.4" d="M18.6768 34.2918L16.7032 35.8176L16.6665 35.8463C16.4391 36.0588 16.3582 36.3854 16.4602 36.6795C16.5621 36.9736 16.8277 37.1801 17.1379 37.2063C17.346 37.2283 17.5539 37.1619 17.7107 37.0235L19.7205 35.4697C20.0334 35.1787 20.0571 34.691 19.7736 34.3712C19.4902 34.0514 19.0033 34.0161 18.6768 34.2918Z" fill="#F5F5F7"/>
<path d="M35.2057 28.2996C35.1091 28.1385 34.979 28.0002 34.8243 27.8939L26.9904 22.8486C26.9402 22.8318 26.8918 22.8101 26.8458 22.7836L24.7969 21.4802C23.4303 22.1016 21.9147 22.3199 20.4283 22.1096C19.4558 21.9609 18.6871 21.2073 18.5191 20.238C18.3744 19.4393 18.6591 18.6232 19.2691 18.0878H12.2157L6.59637 26.5163L7.84785 27.5162L8.94534 26.668C9.55767 26.1639 10.3802 25.9964 11.141 26.2209C11.9018 26.4453 12.5016 27.0326 12.7421 27.7885C13.5939 27.285 14.6486 27.2699 15.5143 27.749C16.38 28.2281 16.9275 29.1297 16.9532 30.1188C17.0562 30.111 17.1597 30.1101 17.2629 30.1163C18.5101 30.2144 19.4665 31.2646 19.448 32.5156C20.2698 32.6034 20.9871 33.1114 21.3428 33.8574C21.6984 34.6034 21.6414 35.4806 21.1921 36.1743L23.8389 37.9432C24.3615 38.2884 25.0614 38.177 25.4509 37.6866C25.8406 37.1961 25.7907 36.4892 25.3362 36.0583C25.2719 35.992 25.2036 35.9296 25.1318 35.8715L23.6419 34.8145C23.4077 34.6482 23.2801 34.3697 23.3071 34.0838C23.334 33.7979 23.5115 33.5482 23.7725 33.4286C24.0335 33.309 24.3385 33.3377 24.5726 33.504L26.0211 34.5321H26.0213L26.0219 34.5326L27.4432 35.5413C27.9965 35.8968 28.7329 35.7411 29.0951 35.1921C29.4578 34.6161 29.3052 33.8569 28.7482 33.4657L28.7469 33.4643L24.8897 30.803C24.5252 30.5504 24.434 30.0505 24.686 29.6856C24.9379 29.3207 25.4378 29.2287 25.8031 29.48L31.0844 33.1243C31.3477 33.2981 31.6694 33.3596 31.9782 33.2954C32.4549 33.2009 32.8275 32.828 32.9217 32.3513C33.0159 31.8745 32.8132 31.388 32.4082 31.1193L32.4056 31.1167L27.2987 27.5864C27.0618 27.4236 26.93 27.1465 26.9531 26.86C26.9761 26.5735 27.1506 26.3211 27.4105 26.1982C27.6704 26.0753 27.9762 26.1008 28.2123 26.2649L33.4897 29.9124L33.4959 29.9163C34.0506 30.2685 34.7847 30.1155 35.1525 29.571C35.4013 29.2 35.4269 28.7226 35.2192 28.3272C35.2143 28.3177 35.2096 28.309 35.2057 28.2996Z" fill="#F5F5F7"/>
</svg>
