<svg width="50" height="50" viewBox="0 0 50 50" fill="none" xmlns="http://www.w3.org/2000/svg">
<path opacity="0.4" d="M26.9231 38.2211C26.9231 37.1608 26.0604 36.2981 25 36.2981C23.9396 36.2981 23.0769 37.1608 23.0769 38.2211C23.0769 39.2815 23.9396 40.1442 25 40.1442C26.0604 40.1442 26.9231 39.2815 26.9231 38.2211Z" fill="#F5F5F7"/>
<path opacity="0.4" d="M20.495 43.0274C21.6331 44.2122 23.2312 44.9519 25 44.9519C26.7688 44.9519 28.3669 44.2122 29.505 43.0273C28.3281 41.802 26.7093 41.1058 25 41.1058C23.2906 41.1058 21.6719 41.802 20.495 43.0274Z" fill="#F5F5F7"/>
<path opacity="0.4" d="M13.4616 38.2211C13.4616 37.1608 12.5989 36.2981 11.5385 36.2981C10.4781 36.2981 9.61542 37.1608 9.61542 38.2211C9.61542 39.2815 10.4781 40.1442 11.5385 40.1442C12.5989 40.1442 13.4616 39.2815 13.4616 38.2211Z" fill="#F5F5F7"/>
<path opacity="0.4" d="M7.03345 43.0274C8.17152 44.2122 9.7697 44.9519 11.5384 44.9519C13.3072 44.9519 14.9054 44.2122 16.0434 43.0274C14.8665 41.802 13.2479 41.1058 11.5384 41.1058C9.82902 41.1058 8.21037 41.802 7.03345 43.0274Z" fill="#F5F5F7"/>
<path d="M38.9423 32.4722V31.6827C38.9423 29.8536 37.4541 28.3654 35.625 28.3654H25.4808V23.7981H34.8231C37.0283 23.7981 38.8222 22.004 38.8222 19.7989C38.8222 17.5937 37.0283 15.7998 34.8231 15.7998C34.6684 15.7998 34.5116 15.8095 34.3439 15.8295C34.175 15.8495 34.0074 15.7787 33.9043 15.6431C33.8012 15.5073 33.7776 15.3271 33.8423 15.1695C34.174 14.3618 34.3423 13.5078 34.3423 12.6312C34.3423 8.94404 31.3426 5.94423 27.6553 5.94423C25.0408 5.94423 22.6672 7.47211 21.5778 9.84461C21.5645 9.91009 21.5385 9.97394 21.4966 10.0315C20.5648 11.3138 20.0722 12.8325 20.0722 14.4232C20.0722 14.6887 19.8569 14.9039 19.5914 14.9039C19.326 14.9039 19.1107 14.6887 19.1107 14.4232C19.1107 12.8113 19.5604 11.2655 20.4135 9.91846C19.8786 9.66327 19.2936 9.52808 18.6955 9.52808C16.4903 9.52808 14.6963 11.3221 14.6963 13.5272C14.6963 14.0874 14.811 14.6308 15.037 15.142C15.1057 15.2973 15.0873 15.4773 14.9887 15.6156C14.8902 15.7538 14.7254 15.8299 14.5568 15.8156C14.4326 15.8051 14.321 15.7999 14.2156 15.7999C12.0104 15.7999 10.2163 17.5939 10.2163 19.799C10.2163 22.0041 12.0104 23.7982 14.2155 23.7982H24.5192V28.3654H14.375C12.5459 28.3654 11.0577 29.8536 11.0577 31.6827V32.4722C7.83538 32.7187 5.28845 35.4177 5.28845 38.7019C5.28845 40.0317 5.7072 41.2648 6.41797 42.2791C7.31739 41.3712 8.43172 40.7263 9.64711 40.3964C9.03922 39.8671 8.65384 39.0886 8.65384 38.2211C8.65384 36.6306 9.94788 35.3365 11.5385 35.3365C13.129 35.3365 14.4231 36.6306 14.4231 38.2211C14.4231 39.0886 14.0377 39.8671 13.4298 40.3964C14.6452 40.7263 15.7595 41.3712 16.6589 42.2791C17.3697 41.2648 17.7885 40.0317 17.7885 38.7019C17.7885 35.4177 15.2415 32.7187 12.0192 32.4722V31.6827C12.0192 30.3836 13.076 29.3269 14.375 29.3269H24.5192V32.4722C21.2969 32.7187 18.75 35.4177 18.75 38.7019C18.75 40.0317 19.1687 41.2648 19.8795 42.2791C20.7789 41.3712 21.8933 40.7263 23.1086 40.3964C22.5008 39.8671 22.1154 39.0886 22.1154 38.2211C22.1154 36.6306 23.4094 35.3365 25 35.3365C26.5906 35.3365 27.8846 36.6306 27.8846 38.2211C27.8846 39.0886 27.4992 39.8671 26.8913 40.3964C28.1067 40.7263 29.2211 41.3712 30.1205 42.2791C30.8312 41.2648 31.25 40.0317 31.25 38.7019C31.25 35.4177 28.703 32.7187 25.4808 32.4722V29.3269H35.625C36.924 29.3269 37.9808 30.3836 37.9808 31.6827V32.4722C34.7586 32.7187 32.2115 35.4177 32.2115 38.7019C32.2115 40.0317 32.6303 41.2648 33.3411 42.2791C34.2405 41.3712 35.3548 40.7263 36.5702 40.3964C35.9623 39.8671 35.5769 39.0886 35.5769 38.2211C35.5769 36.6306 36.871 35.3365 38.4615 35.3365C40.0521 35.3365 41.3461 36.6306 41.3461 38.2211C41.3461 39.0886 40.9608 39.8671 40.3529 40.3964C41.5683 40.7263 42.6826 41.3712 43.582 42.2791C44.2928 41.2648 44.7115 40.0317 44.7115 38.7019C44.7115 35.4177 42.1645 32.7187 38.9423 32.4722ZM19.2308 18.5096C18.6997 18.5096 18.2692 18.0791 18.2692 17.5481C18.2692 17.017 18.6997 16.5865 19.2308 16.5865C19.7618 16.5865 20.1923 17.017 20.1923 17.5481C20.1923 18.0791 19.7618 18.5096 19.2308 18.5096Z" fill="#F5F5F7"/>
<path opacity="0.4" d="M40.3846 38.2211C40.3846 37.1608 39.5219 36.2981 38.4615 36.2981C37.4011 36.2981 36.5385 37.1608 36.5385 38.2211C36.5385 39.2815 37.4011 40.1442 38.4615 40.1442C39.5219 40.1442 40.3846 39.2815 40.3846 38.2211Z" fill="#F5F5F7"/>
<path opacity="0.4" d="M33.9565 43.0273C35.0946 44.2122 36.6928 44.9519 38.4615 44.9519C40.2303 44.9519 41.8285 44.2122 42.9665 43.0273C41.7896 41.802 40.1709 41.1058 38.4615 41.1058C36.7522 41.1058 35.1335 41.802 33.9565 43.0273Z" fill="#F5F5F7"/>
</svg>
