<svg width="45" height="45" viewBox="0 0 45 45" fill="none" xmlns="http://www.w3.org/2000/svg">
<path opacity="0.4" d="M26.4441 14.2119C26.0469 14.2089 25.6602 14.34 25.3468 14.5841C25.0333 14.8281 24.8114 15.1708 24.717 15.5566H28.1711C28.0766 15.1708 27.8547 14.8282 27.5413 14.5841C27.2279 14.3401 26.8413 14.209 26.4441 14.2119Z" fill="#F5F5F7"/>
<path opacity="0.4" d="M19.3359 9.19002C19.1829 9.19 19.0332 9.23538 18.9059 9.32041C18.7786 9.40545 18.6794 9.52632 18.6208 9.66774C18.5622 9.80916 18.5469 9.96478 18.5767 10.1149C18.6066 10.2651 18.6803 10.403 18.7885 10.5112C18.8968 10.6195 19.0347 10.6932 19.1848 10.7231C19.335 10.7529 19.4906 10.7376 19.632 10.679C19.7734 10.6205 19.8943 10.5213 19.9794 10.394C20.0644 10.2667 20.1098 10.1171 20.1098 9.96398C20.1096 9.7588 20.028 9.56209 19.8829 9.41699C19.7378 9.2719 19.5411 9.19027 19.3359 9.19002Z" fill="#F5F5F7"/>
<path opacity="0.4" d="M10.5469 16.4355H14.0625V18.457H10.5469V16.4355Z" fill="#F5F5F7"/>
<path opacity="0.4" d="M12.3141 14.2119C11.9169 14.2089 11.5303 14.3401 11.2168 14.5841C10.9034 14.8281 10.6815 15.1708 10.587 15.5566H14.0411C13.9467 15.1708 13.7248 14.8281 13.4114 14.5841C13.0979 14.34 12.7113 14.2089 12.3141 14.2119Z" fill="#F5F5F7"/>
<path opacity="0.4" d="M24.6973 16.4355H28.2129V18.457H24.6973V16.4355Z" fill="#F5F5F7"/>
<path opacity="0.4" d="M11.0303 24.253C10.8964 24.2534 10.7639 24.2804 10.6405 24.3323C10.5171 24.3841 10.4052 24.46 10.3112 24.5553C10.2173 24.6507 10.1431 24.7637 10.0931 24.8879C10.043 25.012 10.018 25.1449 10.0195 25.2787V29.9707H12.041V25.2787C12.0425 25.1449 12.0176 25.012 11.9675 24.8879C11.9174 24.7637 11.8433 24.6507 11.7493 24.5553C11.6553 24.46 11.5434 24.3841 11.42 24.3323C11.2966 24.2804 11.1641 24.2534 11.0303 24.253Z" fill="#F5F5F7"/>
<path d="M19.0371 5.85202C19.1197 5.77811 19.2272 5.73816 19.3381 5.74016C19.4489 5.74216 19.5549 5.78598 19.6348 5.86283L24.5141 10.3711H33.336L30.3994 3.95508H8.27254L5.33585 10.3711H14.1577L19.0371 5.85202Z" fill="#F5F5F7"/>
<path d="M31.9043 31.9922V21.8848H6.76758V31.9922H14.7656V24.1472C14.7634 24.0471 14.7813 23.9476 14.8181 23.8545C14.8549 23.7613 14.9099 23.6765 14.98 23.6049C15.05 23.5334 15.1336 23.4765 15.226 23.4377C15.3183 23.3989 15.4174 23.3789 15.5175 23.3789H23.0861C23.5125 23.3789 23.8184 23.7209 23.8184 24.1472V31.9922H31.9043ZM12.9199 30.3722C12.9199 30.6149 12.7329 30.8496 12.4901 30.8496H9.55969C9.31702 30.8496 9.14062 30.6149 9.14062 30.3722V25.2787C9.14062 25.0306 9.1895 24.7849 9.28447 24.5556C9.37943 24.3263 9.51862 24.118 9.69409 23.9426C9.86956 23.7671 10.0779 23.6279 10.3071 23.5329C10.5364 23.438 10.7821 23.3891 11.0303 23.3891C11.2784 23.3891 11.5241 23.438 11.7534 23.5329C11.9827 23.6279 12.191 23.7671 12.3665 23.9426C12.5419 24.118 12.6811 24.3263 12.7761 24.5556C12.871 24.7849 12.9199 25.0306 12.9199 25.2787V30.3722ZM25.8398 25.2787C25.8398 24.7776 26.0389 24.2969 26.3933 23.9426C26.7477 23.5882 27.2283 23.3891 27.7295 23.3891C28.2307 23.3891 28.7113 23.5882 29.0657 23.9426C29.4201 24.2969 29.6191 24.7776 29.6191 25.2787V30.3722C29.6191 30.6149 29.4413 30.8496 29.1986 30.8496H26.268C26.0253 30.8496 25.8398 30.6149 25.8398 30.3722V25.2787Z" fill="#F5F5F7"/>
<path opacity="0.4" d="M38.9431 32.6953H36.5113C36.2686 32.6953 36.0352 32.4956 36.0352 32.253V12.9199H32.7832V32.4483C32.7854 32.5039 32.7761 32.5594 32.756 32.6113C32.7359 32.6632 32.7053 32.7104 32.6662 32.7501C32.6271 32.7897 32.5803 32.8209 32.5287 32.8417C32.477 32.8625 32.4216 32.8725 32.366 32.8711H6.30589C6.25023 32.8725 6.19487 32.8625 6.14324 32.8417C6.0916 32.8209 6.04479 32.7897 6.00568 32.7501C5.96658 32.7104 5.93602 32.6632 5.91589 32.6113C5.89577 32.5594 5.8865 32.5039 5.88867 32.4483V12.9199H1.93359V41.03L38.9571 40.943C40.0508 40.9411 41.099 40.5049 41.871 39.7302C42.6431 38.9555 43.0758 37.9059 43.0739 36.8122C43.0721 35.7184 42.6358 34.6703 41.8611 33.8982C41.0865 33.1262 40.0368 32.6935 38.9431 32.6953ZM4.6582 26.7777C4.6582 26.8943 4.6119 27.0061 4.52949 27.0885C4.44708 27.1709 4.3353 27.2172 4.21875 27.2172C4.1022 27.2172 3.99042 27.1709 3.90801 27.0885C3.8256 27.0061 3.7793 26.8943 3.7793 26.7777V16.9555C3.7793 16.839 3.8256 16.7272 3.90801 16.6448C3.99042 16.5624 4.1022 16.5161 4.21875 16.5161C4.3353 16.5161 4.44708 16.5624 4.52949 16.6448C4.6119 16.7272 4.6582 16.839 4.6582 16.9555V26.7777ZM4.6582 15.3134C4.6582 15.4299 4.6119 15.5417 4.52949 15.6241C4.44708 15.7065 4.3353 15.7528 4.21875 15.7528C4.1022 15.7528 3.99042 15.7065 3.90801 15.6241C3.8256 15.5417 3.7793 15.4299 3.7793 15.3134V14.884C3.7793 14.7675 3.8256 14.6557 3.90801 14.5733C3.99042 14.4909 4.1022 14.4446 4.21875 14.4446C4.3353 14.4446 4.44708 14.4909 4.52949 14.5733C4.6119 14.6557 4.6582 14.7675 4.6582 14.884V15.3134Z" fill="#F5F5F7"/>
<path opacity="0.4" d="M39.2472 8.52539H36.9141V31.8164H38.9431C39.755 31.8161 40.5548 32.0135 41.2733 32.3918C41.9917 32.7701 42.6072 33.3177 43.0664 33.9873V12.3635C43.0662 11.3489 42.6643 10.3756 41.9487 9.65646C41.233 8.93726 40.2618 8.53062 39.2472 8.52539Z" fill="#F5F5F7"/>
<path d="M31.9043 11.25H24.3416C24.2327 11.2558 24.1257 11.2196 24.0427 11.1487L19.3359 6.79526L14.6293 11.1541C14.5458 11.2234 14.4387 11.2577 14.3305 11.25H6.76758V21.0059H31.9043V11.25ZM14.9414 18.8974C14.9414 19.14 14.7804 19.3359 14.5377 19.3359H10.0905C10.0337 19.3357 9.97754 19.324 9.92535 19.3017C9.87315 19.2794 9.82596 19.2468 9.78657 19.2059C9.74718 19.165 9.71639 19.1166 9.69602 19.0636C9.67565 19.0106 9.66611 18.9541 9.66797 18.8974V15.9839C9.66797 15.2846 9.94577 14.6139 10.4402 14.1194C10.9347 13.6249 11.6054 13.3472 12.3047 13.3472C13.004 13.3472 13.6746 13.6249 14.1691 14.1194C14.6636 14.6139 14.9414 15.2846 14.9414 15.9839V18.8974ZM19.3359 11.6168C19.009 11.6168 18.6894 11.5199 18.4176 11.3382C18.1458 11.1566 17.9339 10.8985 17.8088 10.5965C17.6837 10.2944 17.651 9.96209 17.7147 9.64145C17.7785 9.32082 17.9359 9.0263 18.1671 8.79513C18.3983 8.56397 18.6928 8.40655 19.0134 8.34277C19.334 8.279 19.6664 8.31174 19.9684 8.43685C20.2704 8.56197 20.5286 8.77383 20.7102 9.04566C20.8918 9.31749 20.9887 9.63706 20.9887 9.96398C20.9882 10.4022 20.8139 10.8223 20.5041 11.1321C20.1942 11.442 19.7741 11.6163 19.3359 11.6168ZM29.0918 18.8974C29.0935 18.9542 29.0838 19.0108 29.0633 19.0638C29.0427 19.1168 29.0118 19.1652 28.9723 19.2061C28.9328 19.247 28.8854 19.2795 28.8331 19.3018C28.7808 19.3241 28.7246 19.3357 28.6677 19.3359H24.2205C23.9777 19.3359 23.8184 19.14 23.8184 18.8974V15.9839C23.8184 15.2846 24.0962 14.6139 24.5906 14.1194C25.0851 13.6249 25.7558 13.3472 26.4551 13.3472C27.1544 13.3472 27.825 13.6249 28.3195 14.1194C28.814 14.6139 29.0918 15.2846 29.0918 15.9839V18.8974Z" fill="#F5F5F7"/>
<path opacity="0.4" d="M28.7402 25.2787C28.7402 25.0107 28.6337 24.7536 28.4442 24.564C28.2546 24.3745 27.9976 24.268 27.7295 24.268C27.4614 24.268 27.2043 24.3745 27.0148 24.564C26.8252 24.7536 26.7188 25.0107 26.7188 25.2787V29.9707H28.7402V25.2787Z" fill="#F5F5F7"/>
<path d="M15.6445 24.2578H22.9395V31.9922H15.6445V24.2578Z" fill="#F5F5F7"/>
</svg>
