<svg width="45" height="45" viewBox="0 0 45 45" fill="none" xmlns="http://www.w3.org/2000/svg">
<path d="M43.211 24.6536C43.9726 24.2452 44.9279 22.4802 44.9279 22.4802C44.9279 22.4802 42.9298 22.3036 42.1681 22.7134C42.0932 22.7544 42.0324 22.8151 41.9618 22.8632C42.0649 22.1524 42.1342 21.4303 42.1624 20.6968C42.6401 20.8254 43.3283 20.6092 43.8271 20.1669C44.4757 19.5932 45 17.6572 45 17.6572C45 17.6572 43.016 17.9455 42.3673 18.5192C42.2868 18.5898 42.2317 18.6789 42.161 18.7594C42.1158 17.9992 42.0197 17.253 41.8925 16.5182C42.3815 16.521 42.9891 16.1522 43.3721 15.6166C43.8723 14.9114 43.943 12.9076 43.943 12.9076C43.943 12.9076 42.0748 13.6368 41.5746 14.342C41.5223 14.4154 41.494 14.5002 41.4502 14.5794C41.2877 14.0014 41.0941 13.4361 40.8793 12.8808C41.3682 12.8002 41.9066 12.3212 42.1766 11.7121C42.5327 10.9236 42.2161 8.94376 42.2161 8.94376C42.2161 8.94376 40.5232 10.0206 40.1699 10.8091C40.1289 10.8981 40.1148 10.9942 40.0865 11.0875C39.7855 10.4926 39.4534 9.91459 39.0959 9.3564C39.5396 9.17128 39.9622 8.63146 40.1275 8.01957C40.3564 7.1844 39.7361 5.27949 39.7361 5.27949C39.7361 5.27949 38.2325 6.60643 38.005 7.44159C37.9753 7.54758 37.9753 7.6578 37.9626 7.76662C37.4976 7.17734 37.003 6.61349 36.4759 6.08074C36.8787 5.808 37.1797 5.16927 37.2037 4.52205C37.2348 3.65862 36.1976 1.94307 36.1976 1.94307C36.1976 1.94307 35.036 3.57948 35.002 4.44291C34.9992 4.54183 35.002 4.64217 35.0133 4.73967C34.5795 4.38073 34.133 4.03734 33.6695 3.71515C33.5437 3.28838 33.2017 2.83476 32.7311 2.55072C31.9921 2.10558 29.9882 2.18189 29.9882 2.18189C29.9882 2.18189 30.8531 3.98929 31.595 4.43585C31.9228 4.63369 32.2959 4.73261 32.6435 4.75522C32.9968 4.99545 33.3473 5.24416 33.6822 5.50842C32.7806 5.60451 31.2982 6.49762 31.2982 6.49762C31.2982 6.49762 32.9318 7.6578 33.7966 7.69031C34.4594 7.71433 35.1292 7.44866 35.4189 7.05157C35.775 7.40909 36.1114 7.7864 36.4392 8.17219C35.5291 8.08175 33.9295 8.59895 33.9295 8.59895C33.9295 8.59895 35.255 10.1011 36.0916 10.3286C36.743 10.5053 37.4623 10.388 37.8283 10.0502C38.094 10.4586 38.3385 10.8769 38.5688 11.3065C37.7068 11.0437 35.9602 11.3178 35.9602 11.3178C35.9602 11.3178 37.0355 13.0094 37.8241 13.3626C38.4119 13.6269 39.11 13.6396 39.5326 13.4036C39.6753 13.7725 39.8039 14.1484 39.9226 14.5285C39.1355 14.0947 37.3436 14.0254 37.3436 14.0254C37.3436 14.0254 38.0756 15.8922 38.7808 16.3924C39.3121 16.7697 40.0046 16.9195 40.4681 16.7598C40.5557 17.2615 40.6235 17.7702 40.673 18.286C39.9721 17.7052 38.3201 17.2544 38.3201 17.2544C38.3201 17.2544 38.6098 19.2385 39.1849 19.8843C39.6103 20.3648 40.2391 20.6629 40.7238 20.6219C40.7055 21.1363 40.673 21.6479 40.6136 22.1524C40.1049 21.4133 38.5236 20.5499 38.5236 20.5499C38.5236 20.5499 38.3469 22.548 38.7582 23.3083C39.0874 23.9216 39.6937 24.3625 40.201 24.371C40.0893 24.8176 39.9706 25.2641 39.8265 25.6979C39.4647 24.8953 37.8976 23.786 37.8976 23.786C37.8976 23.786 37.4892 25.7502 37.81 26.5529C38.0417 27.145 38.5278 27.6382 38.9913 27.7668C38.802 28.1667 38.6084 28.561 38.3922 28.9425C38.1873 28.089 36.8518 26.7069 36.8518 26.7069C36.8518 26.7069 36.0845 28.5595 36.247 29.4088C36.3629 30.0278 36.7402 30.5959 37.1656 30.8192C36.89 31.1922 36.606 31.5582 36.3021 31.9101C36.288 31.0382 35.2168 29.3862 35.2168 29.3862C35.2168 29.3862 34.1075 31.0566 34.1019 31.9186C34.099 32.5601 34.3647 33.2017 34.7505 33.4956C34.417 33.7995 34.0736 34.0962 33.7203 34.376C33.7217 34.3591 33.7274 34.3463 33.7288 34.3294C33.832 33.4716 32.9431 31.6727 32.9431 31.6727C32.9431 31.6727 31.6487 33.2017 31.5441 34.0581C31.4692 34.6488 31.6374 35.2508 31.9412 35.604C31.5031 35.8711 31.058 36.1227 30.5973 36.3516C30.6439 36.2272 30.6849 36.1001 30.7103 35.9686C30.8757 35.1193 30.1168 33.2639 30.1168 33.2639C30.1168 33.2639 28.715 34.6982 28.5511 35.5475C28.4366 36.1297 28.5624 36.743 28.8393 37.1175C28.0324 37.4213 27.1944 37.6559 26.3409 37.8495C25.8392 36.1961 24.3187 34.9837 22.5028 34.9837C20.6855 34.9837 19.1664 36.1933 18.6647 37.8495C17.8112 37.6587 16.9732 37.4213 16.1663 37.1175C16.4433 36.7416 16.5691 36.1297 16.4546 35.5475C16.2907 34.6968 14.8888 33.2639 14.8888 33.2639C14.8888 33.2639 14.1286 35.1193 14.2953 35.9686C14.3208 36.1001 14.3617 36.2272 14.4084 36.3516C13.9477 36.1227 13.5011 35.8711 13.0645 35.604C13.3655 35.2508 13.535 34.6488 13.4616 34.0581C13.357 33.2017 12.0611 31.6727 12.0611 31.6727C12.0611 31.6727 11.1737 33.4688 11.2768 34.3294C11.2783 34.3463 11.2839 34.3591 11.2853 34.376C10.9306 34.0962 10.5887 33.8009 10.2552 33.4956C10.6395 33.2017 10.9066 32.5587 10.9024 31.9186C10.8981 31.0537 9.7874 29.3862 9.7874 29.3862C9.7874 29.3862 8.71766 31.0382 8.70352 31.9101C8.40111 31.5582 8.11566 31.1908 7.8401 30.8192C8.26545 30.5959 8.64135 30.0278 8.75864 29.4088C8.92256 28.5567 8.15381 26.7069 8.15381 26.7069C8.15381 26.7069 6.8184 28.0904 6.61349 28.9425C6.39869 28.5595 6.20368 28.1667 6.01573 27.7668C6.48066 27.6368 6.96395 27.145 7.19712 26.5529C7.51649 25.7474 7.10809 23.786 7.10809 23.786C7.10809 23.786 5.53951 24.8939 5.17774 25.6979C5.0336 25.2613 4.9149 24.8176 4.80467 24.371C5.31058 24.3625 5.91681 23.9216 6.24608 23.3083C6.6573 22.5466 6.48207 20.5499 6.48207 20.5499C6.48207 20.5499 4.89794 21.4133 4.39062 22.1524C4.33127 21.6493 4.29877 21.1377 4.2804 20.6219C4.76369 20.6629 5.39395 20.3633 5.81931 19.8843C6.39445 19.2385 6.68415 17.2544 6.68415 17.2544C6.68415 17.2544 5.0336 17.7052 4.33127 18.286C4.3779 17.7716 4.44715 17.2615 4.53618 16.7598C4.99827 16.9195 5.69212 16.7697 6.22346 16.3924C6.92862 15.8936 7.65921 14.0254 7.65921 14.0254C7.65921 14.0254 5.86735 14.0947 5.08024 14.5285C5.19894 14.1469 5.32895 13.7725 5.47167 13.4036C5.89562 13.6396 6.59371 13.6255 7.17875 13.3626C7.96869 13.0108 9.04409 11.3178 9.04409 11.3178C9.04409 11.3178 7.2918 11.0479 6.42837 11.3108C6.66012 10.8812 6.90601 10.4615 7.17027 10.0545C7.53768 10.3908 8.25697 10.5095 8.90843 10.3329C9.74359 10.1054 11.0705 8.60319 11.0705 8.60319C11.0705 8.60319 9.46803 8.0874 8.55938 8.17784C8.88582 7.79205 9.22215 7.41474 9.57826 7.05722C9.86936 7.45431 10.5406 7.71857 11.202 7.69596C12.0654 7.66487 13.7004 6.50327 13.7004 6.50327C13.7004 6.50327 12.218 5.61017 11.3164 5.51407C11.6527 5.24981 12.0018 5.00252 12.3565 4.76228C12.7027 4.73967 13.0772 4.64075 13.405 4.44291C14.1455 3.99636 15.0104 2.18896 15.0104 2.18896C15.0104 2.18896 13.0079 2.11123 12.2675 2.55637C11.7969 2.839 11.4549 3.29403 11.3277 3.71939C10.8642 4.04158 10.4177 4.38639 9.98524 4.74391C9.99372 4.64499 9.99796 4.54607 9.99513 4.44715C9.96263 3.58231 8.80103 1.94731 8.80103 1.94731C8.80103 1.94731 7.76096 3.66145 7.79346 4.52629C7.81749 5.17351 8.11707 5.81224 8.51982 6.08357C7.99413 6.61773 7.49953 7.18158 7.03461 7.77086C7.02048 7.66204 7.02047 7.55182 6.99221 7.44583C6.7647 6.61067 5.26112 5.28373 5.26112 5.28373C5.26112 5.28373 4.63934 7.19005 4.86826 8.02381C5.03501 8.63711 5.45754 9.17693 5.90268 9.36205C5.54516 9.92024 5.21307 10.4954 4.91207 11.0931C4.88381 10.9999 4.86968 10.9038 4.83011 10.8148C4.47541 10.0262 2.78247 8.94941 2.78247 8.94941C2.78247 8.94941 2.46593 10.9278 2.82204 11.7163C3.09477 12.324 3.63318 12.8045 4.1193 12.885C3.90592 13.439 3.71232 14.0042 3.54839 14.5822C3.50458 14.503 3.47632 14.4183 3.42404 14.3448C2.92378 13.6382 1.05561 12.909 1.05561 12.909C1.05561 12.909 1.12627 14.9129 1.62794 15.618C2.00948 16.1522 2.61855 16.5224 3.10749 16.5196C2.97748 17.2544 2.8828 18.0006 2.83758 18.7608C2.76834 18.6803 2.7104 18.5913 2.63126 18.5206C1.98405 17.9455 0 17.66 0 17.66C0 17.66 0.522861 19.596 1.17149 20.1697C1.67033 20.612 2.35853 20.8283 2.83617 20.6997C2.86443 21.4331 2.93085 22.1538 3.03684 22.866C2.96618 22.818 2.90683 22.7572 2.83052 22.7162C2.06884 22.305 0.070657 22.483 0.070657 22.483C0.070657 22.483 1.02594 24.2466 1.78762 24.6579C2.33309 24.9504 2.9902 25.0112 3.42969 24.8345C3.571 25.3913 3.7321 25.9353 3.92005 26.4738C3.85646 26.4412 3.80276 26.3946 3.73634 26.3692C2.93226 26.0512 0.969413 26.4624 0.969413 26.4624C0.969413 26.4624 2.12395 28.1003 2.92944 28.4168C3.55404 28.6655 4.2804 28.6274 4.68314 28.3377C4.93892 28.8803 5.21448 29.4103 5.51548 29.9261C5.45189 29.9077 5.38689 29.8879 5.32188 29.8766C4.47259 29.7141 2.61996 30.4814 2.61996 30.4814C2.61996 30.4814 4.05995 31.8776 4.91066 32.0401C5.57907 32.1673 6.2913 31.9892 6.62762 31.6204C6.9908 32.1164 7.37376 32.5926 7.78074 33.0547C7.72563 33.0519 7.67193 33.0434 7.61682 33.0448C6.75198 33.0505 5.08306 34.1626 5.08306 34.1626C5.08306 34.1626 6.7647 35.2522 7.62954 35.2493C8.29654 35.2437 8.9593 34.9455 9.22921 34.5315C9.61924 34.8904 10.0192 35.2352 10.436 35.5616C10.3993 35.5645 10.3625 35.556 10.3258 35.5602C9.46662 35.6662 7.93902 36.9635 7.93902 36.9635C7.93902 36.9635 9.73512 37.8523 10.5929 37.7464C11.3037 37.6587 11.9679 37.2376 12.1389 36.7515C12.4724 36.9578 12.8002 37.1769 13.1464 37.3648C12.2971 37.7181 11.1497 38.8387 11.1497 38.8387C11.1497 38.8387 13.0037 39.5919 13.8516 39.4238C14.537 39.2909 15.1545 38.8415 15.3114 38.3611C16.3345 38.7666 17.4014 39.0846 18.498 39.3164C18.6464 41.4064 20.3718 43.0598 22.4986 43.0598C24.6254 43.0598 26.3508 41.4064 26.4992 39.3164C27.5958 39.0846 28.6627 38.7666 29.6872 38.3611C29.8413 38.8415 30.4602 39.2909 31.1456 39.4238C31.9949 39.5919 33.8503 38.8331 33.8503 38.8331C33.8503 38.8331 32.7029 37.7124 31.8536 37.3592C32.1998 37.1698 32.5276 36.9564 32.8611 36.7459C33.0321 37.2306 33.6977 37.6545 34.4071 37.7407C35.2649 37.8467 37.0624 36.9578 37.0624 36.9578C37.0624 36.9578 35.5334 35.6606 34.6756 35.5532C34.6403 35.5503 34.6021 35.5588 34.5654 35.556C34.9823 35.2296 35.3822 34.8848 35.7722 34.5258C36.0421 34.9399 36.7049 35.238 37.3733 35.2437C38.2367 35.2493 39.9198 34.157 39.9198 34.157C39.9198 34.157 38.2508 33.0448 37.386 33.0392C37.3309 33.0392 37.2772 33.0463 37.2221 33.0491C37.6291 32.5912 38.012 32.1108 38.3752 31.6148C38.7115 31.9836 39.4238 32.163 40.0922 32.0345C40.9429 31.8734 42.3829 30.4758 42.3829 30.4758C42.3829 30.4758 40.5302 29.7084 39.6809 29.8695C39.6159 29.8822 39.5509 29.9006 39.4873 29.9204C39.7883 29.4074 40.0639 28.8775 40.3197 28.332C40.721 28.6217 41.4474 28.6585 42.0734 28.4112C42.8789 28.0946 44.0334 26.4554 44.0334 26.4554C44.0334 26.4554 42.0706 26.0456 41.2665 26.3635C41.2001 26.3918 41.1464 26.4356 41.0828 26.4681C41.2707 25.9325 41.4304 25.3842 41.5731 24.8289C42.0084 25.0069 42.6641 24.9461 43.211 24.6536Z" fill="#F5F5F7"/>
<path opacity="0.5" d="M18.24 14.44L14.288 15.736L14.8 17.64L16.8 17V25H18.96V14.44H18.24ZM22.1179 19.64C22.1179 22.76 23.5259 25.192 26.3099 25.192C29.0779 25.192 30.4859 22.76 30.4859 19.64C30.4859 18.024 30.1339 16.728 29.4139 15.736C28.7099 14.744 27.6699 14.248 26.3099 14.248C24.9499 14.248 23.9099 14.744 23.1899 15.736C22.4699 16.728 22.1179 18.024 22.1179 19.64ZM28.2619 19.656C28.2619 22.008 27.6059 23.192 26.3099 23.192C24.9979 23.192 24.3419 22.008 24.3419 19.656C24.3419 17.416 24.9499 16.248 26.3099 16.248C27.6539 16.248 28.2619 17.416 28.2619 19.656Z" fill="#F5F5F7"/>
</svg>
