<svg width="210" height="39" viewBox="0 0 210 39" fill="none" xmlns="http://www.w3.org/2000/svg">
<g clip-path="url(#clip0)">
<path d="M80.5166 9.63039L74.5358 16.7905L68.5551 9.63039H67.3845V23.6585H71.0453V17.8969L73.9399 21.2161H75.1105L78.0264 17.8761V23.6585H81.6872V9.63039H80.5166ZM87.2571 23.6585H90.9179V19.3791H92.7696C95.8345 19.3791 98.197 17.4377 98.197 14.6195C98.197 11.7596 95.8983 9.88089 92.7696 9.88089H87.2571V23.6585ZM90.9179 16.2478V13.0122H92.7909C93.8125 13.0122 94.4723 13.6384 94.4723 14.6195C94.4723 15.6007 93.8125 16.2478 92.7909 16.2478H90.9179ZM105.975 23.6585H109.636V13.1165H113.85V9.88089H101.761V13.1165H105.975V23.6585ZM116.827 18.3771H122.36V15.371H116.827V18.3771ZM126.656 16.7697C126.571 20.7568 130.104 23.9716 134.233 23.909C137.064 23.909 139.405 22.5521 140.682 20.2141L137.894 18.3562C136.979 19.8592 135.766 20.6107 134.233 20.6107C133.105 20.6107 132.19 20.2558 131.466 19.5669C130.764 18.8572 130.402 17.9387 130.402 16.7905C130.402 14.4734 131.998 12.9287 134.233 12.9287C135.766 12.9287 136.979 13.6802 137.894 15.1832L140.682 13.3253C139.405 10.9873 137.064 9.63039 134.255 9.63039C130.083 9.54689 126.592 12.8243 126.656 16.7697ZM148.55 23.6585H152.211V13.1165H156.425V9.88089H144.336V13.1165H148.55V23.6585ZM160.807 23.6585H164.468V19.3791H166.319C169.384 19.3791 171.747 17.4377 171.747 14.6195C171.747 11.7596 169.448 9.88089 166.319 9.88089H160.807V23.6585ZM164.468 16.2478V13.0122H166.341C167.362 13.0122 168.022 13.6384 168.022 14.6195C168.022 15.6007 167.362 16.2478 166.341 16.2478H164.468ZM175.779 16.7697C175.693 20.7568 179.226 23.9716 183.334 23.909C187.421 23.9716 191.018 20.7568 190.933 16.7697C191.018 12.8243 187.421 9.54689 183.334 9.63039C179.226 9.54689 175.693 12.8243 175.779 16.7697ZM187.187 16.7697C187.187 19.0659 185.526 20.6107 183.356 20.6107C182.228 20.6107 181.291 20.2558 180.589 19.5669C179.886 18.8572 179.524 17.9178 179.524 16.7697C179.524 14.4943 181.099 12.9287 183.356 12.9287C185.526 12.9287 187.187 14.4943 187.187 16.7697ZM207.073 9.63039L199.454 16.9576V9.88089H195.793V23.909H196.964L204.583 16.4983V23.6585H208.244V9.63039H207.073ZM198.752 4.84999C198.752 7.12537 200.39 8.73276 202.71 8.73276C205.03 8.73276 206.669 7.12537 206.669 4.84999V4.66211H203.796V4.95436C203.796 5.76849 203.413 6.20687 202.71 6.20687C202.008 6.20687 201.625 5.76849 201.625 4.95436V4.66211H198.752V4.84999Z" fill="#E7B14B"/>
<path d="M71.9257 30.3519L69.764 33.2681L67.6179 30.3519H67.3994V35.4879H68.0081V31.8521L69.6625 34.0565H69.881L71.5277 31.8674V35.4879H72.1364V30.3519H71.9257ZM73.2219 32.962C73.1907 34.3933 74.4315 35.6027 75.8909 35.5721C77.3346 35.595 78.5989 34.4086 78.5677 32.962C78.5989 31.5153 77.3346 30.3289 75.8909 30.3519C74.4315 30.3289 73.1907 31.5153 73.2219 32.962ZM77.9355 32.9543C77.9589 34.1101 77.0303 35.0363 75.8987 35.021C74.7359 35.021 73.854 34.1254 73.854 32.9543C73.854 31.7832 74.7359 30.903 75.8987 30.903C77.0303 30.88 77.9589 31.8138 77.9355 32.9543ZM79.6538 35.4879H80.2626V33.0538H83.1501V35.4879H83.7588V30.4361H83.1501V32.518H80.2626V30.4361H79.6538V35.4879ZM86.4285 35.4879H87.0372V30.9719H88.8555V30.4361H84.6179V30.9719H86.4285V35.4879ZM92.7015 35.4879H93.3493L91.1173 30.3519H90.891L88.659 35.4879H89.299L89.736 34.4622H92.2645L92.7015 35.4879ZM92.0304 33.9264H89.9701L91.0002 31.4388L92.0304 33.9264ZM94.0367 30.4361L96.2062 32.7783L93.826 35.4879H94.6064L96.9867 32.7783L94.8249 30.4361H94.0367ZM97.0569 35.4879H97.6656V30.4361H97.0569V35.4879ZM98.5162 32.7783L100.686 30.4361H99.8976L97.7358 32.7783L100.116 35.4879H100.889L98.5162 32.7783ZM101.839 35.4879H102.448V33.0538H105.336V35.4879H105.944V30.4361H105.336V32.518H102.448V30.4361H101.839V35.4879ZM107.029 32.962C106.998 34.3933 108.239 35.6027 109.698 35.5721C111.142 35.595 112.406 34.4086 112.375 32.962C112.406 31.5153 111.142 30.3289 109.698 30.3519C108.239 30.3289 106.998 31.5153 107.029 32.962ZM111.743 32.9543C111.766 34.1101 110.837 35.0363 109.706 35.021C108.543 35.021 107.661 34.1254 107.661 32.9543C107.661 31.7832 108.543 30.903 109.706 30.903C110.837 30.88 111.766 31.8138 111.743 32.9543ZM113.165 33.3294H115.03V32.8319H113.165V33.3294ZM116.16 35.4879H116.769V33.3753H117.97C118.969 33.3753 119.617 32.763 119.617 31.898C119.617 31.0484 118.969 30.4361 117.97 30.4361H116.16V35.4879ZM116.769 32.8395V30.9719H117.955C118.61 30.9719 118.985 31.3546 118.985 31.9057C118.985 32.4645 118.61 32.8395 117.955 32.8395H116.769ZM120.633 35.4879H124.028V34.9521H121.242V33.0538H123.302V32.518H121.242V30.9719H123.934V30.4361H120.633V35.4879ZM129.58 30.3519L127.418 33.2681L125.272 30.3519H125.054V35.4879H125.662V31.8521L127.317 34.0565H127.535L129.182 31.8674V35.4879H129.791V30.3519H129.58ZM130.875 32.962C130.844 34.3933 132.085 35.6027 133.544 35.5721C134.988 35.595 136.252 34.4086 136.221 32.962C136.252 31.5153 134.988 30.3289 133.544 30.3519C132.085 30.3289 130.844 31.5153 130.875 32.962ZM135.589 32.9543C135.612 34.1101 134.684 35.0363 133.552 35.021C132.389 35.021 131.508 34.1254 131.508 32.9543C131.508 31.7832 132.389 30.903 133.552 30.903C134.684 30.88 135.612 31.8138 135.589 32.9543ZM137.308 35.4879H137.917V33.0538H140.804V35.4879H141.413V30.4361H140.804V32.518H137.917V30.4361H137.308V35.4879ZM144.082 35.4879H144.691V30.9719H146.509V30.4361H142.271V30.9719H144.082V35.4879ZM147.368 35.4879H147.977V33.0538H150.864V35.4879H151.473V30.4361H150.864V32.518H147.977V30.4361H147.368V35.4879ZM152.558 32.962C152.527 34.3933 153.768 35.6027 155.227 35.5721C156.671 35.595 157.935 34.4086 157.904 32.962C157.935 31.5153 156.671 30.3289 155.227 30.3519C153.768 30.3289 152.527 31.5153 152.558 32.962ZM157.272 32.9543C157.295 34.1101 156.366 35.0363 155.235 35.021C154.072 35.021 153.19 34.1254 153.19 32.9543C153.19 31.7832 154.072 30.903 155.235 30.903C156.366 30.88 157.295 31.8138 157.272 32.9543ZM158.991 35.4879H162.385V34.9521H159.599V33.0538H161.66V32.518H159.599V30.9719H162.292V30.4361H158.991V35.4879ZM165.262 32.962C165.231 34.3933 166.472 35.6027 167.931 35.5721C169.375 35.595 170.639 34.4086 170.608 32.962C170.639 31.5153 169.375 30.3289 167.931 30.3519C166.472 30.3289 165.231 31.5153 165.262 32.962ZM169.976 32.9543C169.999 34.1101 169.071 35.0363 167.939 35.021C166.776 35.021 165.894 34.1254 165.894 32.9543C165.894 31.7832 166.776 30.903 167.939 30.903C169.071 30.88 169.999 31.8138 169.976 32.9543ZM171.695 35.4879H173.435C174.489 35.4879 175.152 34.8602 175.152 33.9876C175.152 33.1304 174.489 32.5027 173.435 32.5027H172.304V30.9719H174.746V30.4361H171.695V35.4879ZM172.304 34.9521V33.0385H173.427C174.122 33.0385 174.52 33.4365 174.52 33.9953C174.52 34.554 174.122 34.9521 173.427 34.9521H172.304ZM182.333 36.5671H182.941V34.9521H182.317V30.4361H181.708V34.9521H179.562V30.4361H178.953V34.9521H176.815V30.4361H176.206V35.4879H182.333V36.5671ZM183.888 35.4879H187.283V34.9521H184.497V33.0538H186.557V32.518H184.497V30.9719H187.189V30.4361H183.888V35.4879ZM187.821 32.962C187.79 34.4086 189.038 35.595 190.498 35.5721C191.411 35.5721 192.207 35.1511 192.636 34.4852L192.183 34.1331C191.785 34.6918 191.216 35.021 190.505 35.021C189.343 35.021 188.453 34.1331 188.453 32.962C188.453 31.7909 189.343 30.903 190.505 30.903C191.216 30.903 191.785 31.2321 192.183 31.7909L192.636 31.4388C192.199 30.7729 191.411 30.3519 190.498 30.3519C189.038 30.3289 187.79 31.5153 187.821 32.962ZM194.984 35.4879H195.592V30.9719H197.411V30.4361H193.173V30.9719H194.984V35.4879ZM202.024 34.0336C202.024 33.383 201.649 32.8931 201.017 32.7094C201.329 32.4721 201.508 32.1353 201.508 31.7143C201.508 31.3393 201.376 31.0331 201.11 30.7958C200.845 30.5586 200.486 30.4361 200.041 30.4361H198.27V35.4879H200.393C201.399 35.4879 202.024 34.8755 202.024 34.0336ZM199.979 30.9719C200.572 30.9719 200.884 31.2704 200.884 31.7526C200.884 32.2348 200.564 32.541 199.979 32.541H198.879V30.9719H199.979ZM201.399 34.0183C201.399 34.577 201.009 34.9521 200.33 34.9521H198.879V33.0844H200.33C201.009 33.0844 201.399 33.4595 201.399 34.0183ZM202.743 32.962C202.712 34.3933 203.953 35.6027 205.412 35.5721C206.856 35.595 208.12 34.4086 208.089 32.962C208.12 31.5153 206.856 30.3289 205.412 30.3519C203.953 30.3289 202.712 31.5153 202.743 32.962ZM207.457 32.9543C207.48 34.1101 206.551 35.0363 205.42 35.021C204.257 35.021 203.375 34.1254 203.375 32.9543C203.375 31.7832 204.257 30.903 205.42 30.903C206.551 30.88 207.48 31.8138 207.457 32.9543Z" fill="white"/>
<path d="M33.4508 0L57.2366 14.6248L57.2366 20.4747L33.4508 13.7891V0Z" fill="white"/>
<path d="M33.4526 0.000488281L13.9946 8.35685V14.6246L33.4526 13.7889V0.000488281Z" fill="#E7B14B"/>
<path d="M24.3728 13.3711L53.1893 21.937V26.3244L24.3728 22.9816V13.3711Z" fill="white"/>
<path d="M24.3746 13.3716L2.49181 19.6387L2.49178 27.3689L24.3746 22.9815V13.3716Z" fill="#E7B14B"/>
<path d="M38.6527 26.7422L60.6449 29.8761V35.517H38.6527V26.7422Z" fill="white"/>
<path d="M38.6544 26.7432L13.5686 28.8318V35.5174H38.6544V26.7432Z" fill="#E7B14B"/>
<path opacity="0.1" d="M38.7043 29.2493L24.0063 27.9957L38.7043 26.7422L60.6449 29.8761V33.4278L38.7043 29.2493Z" fill="#303030"/>
<path d="M24.4323 12.5356L1.85274 18.5944V28.4139L24.4323 23.8175L53.8284 26.8127V21.6565L24.4323 12.5356Z" stroke="#303030" stroke-width="4"/>
</g>
<defs>
<clipPath id="clip0">
<rect width="210" height="38.271" fill="white"/>
</clipPath>
</defs>
</svg>
