<svg width="25" height="25" viewBox="0 0 25 25" fill="none" xmlns="http://www.w3.org/2000/svg">
<g clip-path="url(#clip0)">
<path d="M15.3276 10.1779L11.5714 13.7257L9.76867 11.8711C9.56882 11.6654 9.23973 11.6607 9.03419 11.8605C8.82843 12.0606 8.82375 12.3895 9.0236 12.5952L11.1857 14.8148C11.3866 15.0168 11.7112 15.0238 11.9204 14.8302L16.0519 10.9333C16.1523 10.8387 16.2109 10.708 16.2148 10.5703C16.2186 10.4325 16.1675 10.2988 16.0727 10.1986C15.8716 9.98963 15.5401 9.98047 15.3276 10.1779Z" fill="#E7B14B"/>
<path d="M12.5403 4.71777C8.24739 4.71777 4.75671 8.20845 4.75671 12.5014C4.75671 16.7945 8.24739 20.2852 12.5403 20.2852C16.8334 20.2852 20.3241 16.7945 20.3241 12.5014C20.3241 8.20845 16.8334 4.71777 12.5403 4.71777ZM12.5403 19.2432C8.82048 19.2432 5.79871 16.2161 5.79871 12.5014C5.79871 8.78663 8.82048 5.75977 12.5403 5.75977C16.2638 5.75977 19.2821 8.77808 19.2821 12.5014C19.2821 16.2247 16.2638 19.2432 12.5403 19.2432Z" fill="#E7B14B"/>
<path d="M23.2521 9.63584L23.4241 6.54629C23.4361 6.33891 23.3233 6.14414 23.1375 6.05134L20.3866 4.66032L18.9956 1.90942C18.901 1.72524 18.7074 1.6131 18.5007 1.62287L15.4058 1.78975L12.8269 0.0859339C12.6531 -0.0286446 12.4278 -0.0286446 12.2538 0.0859339L9.67484 1.78975L6.58549 1.61778C6.37791 1.60557 6.18335 1.71832 6.09054 1.90433L4.69932 4.65523L1.94862 6.04625C1.76423 6.14068 1.6523 6.33423 1.66207 6.5412L1.83383 9.63075L0.130215 12.2097C0.0156363 12.3835 0.0156363 12.6088 0.130215 12.7828L1.82875 15.3668L1.65678 18.4563C1.64477 18.6637 1.75731 18.8585 1.94333 18.9513L4.69423 20.3423L6.08525 23.0932C6.17968 23.2776 6.37322 23.3895 6.5802 23.3798L9.66975 23.2078L12.2487 24.9114C12.4215 25.0296 12.649 25.0296 12.8218 24.9114L15.4007 23.2078L18.4903 23.3798C18.6977 23.3918 18.8922 23.279 18.9852 23.0932L20.3762 20.3423L23.1271 18.9513C23.3113 18.8567 23.4235 18.6633 23.4137 18.4563L23.2417 15.3668L24.9453 12.7879C25.0599 12.6141 25.0599 12.3886 24.9453 12.2148L23.2521 9.63584ZM22.283 14.9396C22.2195 15.0328 22.19 15.145 22.1997 15.2575L22.3611 18.1802L19.7614 19.493C19.6623 19.5427 19.5819 19.6233 19.5323 19.7224L18.2192 22.3221L15.2965 22.1607C15.1846 22.1566 15.0741 22.1855 14.9786 22.2439L12.5403 23.8539L10.1022 22.2439C10.0176 22.1868 9.91784 22.1558 9.81567 22.1554H9.78962L6.86675 22.317L5.55388 19.7171C5.50422 19.618 5.42383 19.5376 5.32451 19.488L2.71953 18.1802L2.88112 15.2575C2.88519 15.1456 2.85609 15.0351 2.79768 14.9396L1.18788 12.5013L2.79768 10.063C2.86138 9.97001 2.89089 9.85767 2.88112 9.74533L2.71953 6.82246L5.31943 5.50959C5.41854 5.45993 5.49893 5.37954 5.54858 5.28043L6.86146 2.68054L9.78433 2.84213C9.89606 2.84599 10.0066 2.81709 10.1022 2.75869L12.5403 1.14889L14.9786 2.75869C15.0718 2.82239 15.1842 2.85189 15.2965 2.84213L18.2192 2.68054L19.5323 5.28043C19.5819 5.37954 19.6623 5.45993 19.7614 5.50959L22.3611 6.82246L22.1997 9.74533C22.1957 9.85706 22.2248 9.96756 22.283 10.063L23.893 12.5013L22.283 14.9396Z" fill="#E7B14B"/>
</g>
<defs>
<clipPath id="clip0">
<rect width="25" height="25" fill="white"/>
</clipPath>
</defs>
</svg>
