<svg width="210" height="39" viewBox="0 0 210 39" fill="none" xmlns="http://www.w3.org/2000/svg">
<g clip-path="url(#clip0)">
<path d="M80.5166 9.63039L74.5358 16.7905L68.5551 9.63039H67.3845V23.6585H71.0453V17.8969L73.9399 21.2161H75.1105L78.0264 17.8761V23.6585H81.6872V9.63039H80.5166ZM87.2571 23.6585H90.9179V19.3791H92.7696C95.8345 19.3791 98.197 17.4377 98.197 14.6195C98.197 11.7596 95.8983 9.88089 92.7696 9.88089H87.2571V23.6585ZM90.9179 16.2478V13.0122H92.7909C93.8125 13.0122 94.4723 13.6384 94.4723 14.6195C94.4723 15.6007 93.8125 16.2478 92.7909 16.2478H90.9179ZM105.975 23.6585H109.636V13.1165H113.85V9.88089H101.761V13.1165H105.975V23.6585ZM116.827 18.3771H122.36V15.371H116.827V18.3771ZM126.656 16.7697C126.571 20.7568 130.104 23.9716 134.233 23.909C137.064 23.909 139.405 22.5521 140.682 20.2141L137.894 18.3562C136.979 19.8592 135.766 20.6107 134.233 20.6107C133.105 20.6107 132.19 20.2558 131.466 19.5669C130.764 18.8572 130.402 17.9387 130.402 16.7905C130.402 14.4734 131.998 12.9287 134.233 12.9287C135.766 12.9287 136.979 13.6802 137.894 15.1832L140.682 13.3253C139.405 10.9873 137.064 9.63039 134.255 9.63039C130.083 9.54689 126.592 12.8243 126.656 16.7697ZM148.55 23.6585H152.211V13.1165H156.425V9.88089H144.336V13.1165H148.55V23.6585ZM160.807 23.6585H164.468V19.3791H166.319C169.384 19.3791 171.747 17.4377 171.747 14.6195C171.747 11.7596 169.448 9.88089 166.319 9.88089H160.807V23.6585ZM164.468 16.2478V13.0122H166.341C167.362 13.0122 168.022 13.6384 168.022 14.6195C168.022 15.6007 167.362 16.2478 166.341 16.2478H164.468ZM175.779 16.7697C175.693 20.7568 179.226 23.9716 183.334 23.909C187.421 23.9716 191.018 20.7568 190.933 16.7697C191.018 12.8243 187.421 9.54689 183.334 9.63039C179.226 9.54689 175.693 12.8243 175.779 16.7697ZM187.187 16.7697C187.187 19.0659 185.526 20.6107 183.356 20.6107C182.228 20.6107 181.291 20.2558 180.589 19.5669C179.886 18.8572 179.524 17.9178 179.524 16.7697C179.524 14.4943 181.099 12.9287 183.356 12.9287C185.526 12.9287 187.187 14.4943 187.187 16.7697ZM207.073 9.63039L199.454 16.9576V9.88089H195.793V23.909H196.964L204.583 16.4983V23.6585H208.244V9.63039H207.073ZM198.752 4.84999C198.752 7.12537 200.39 8.73276 202.71 8.73276C205.03 8.73276 206.669 7.12537 206.669 4.84999V4.66211H203.796V4.95436C203.796 5.76849 203.413 6.20687 202.71 6.20687C202.008 6.20687 201.625 5.76849 201.625 4.95436V4.66211H198.752V4.84999Z" fill="#E7B14B"/>
<path d="M71.9257 30.3517L69.764 33.268L67.6179 30.3517H67.3994V35.4877H68.0081V31.8519L69.6625 34.0563H69.881L71.5277 31.8672V35.4877H72.1364V30.3517H71.9257ZM73.2219 32.9618C73.1907 34.3931 74.4315 35.6025 75.8909 35.5719C77.3346 35.5948 78.5989 34.4084 78.5677 32.9618C78.5989 31.5151 77.3346 30.3287 75.8909 30.3517C74.4315 30.3287 73.1907 31.5151 73.2219 32.9618ZM77.9355 32.9541C77.9589 34.1099 77.0303 35.0361 75.8987 35.0208C74.7359 35.0208 73.854 34.1252 73.854 32.9541C73.854 31.783 74.7359 30.9028 75.8987 30.9028C77.0303 30.8798 77.9589 31.8137 77.9355 32.9541ZM79.6538 35.4877H80.2626V33.0536H83.1501V35.4877H83.7588V30.4359H83.1501V32.5178H80.2626V30.4359H79.6538V35.4877ZM86.4285 35.4877H87.0372V30.9717H88.8555V30.4359H84.6179V30.9717H86.4285V35.4877ZM92.7015 35.4877H93.3493L91.1173 30.3517H90.891L88.659 35.4877H89.299L89.736 34.462H92.2645L92.7015 35.4877ZM92.0304 33.9262H89.9701L91.0002 31.4386L92.0304 33.9262ZM94.0367 30.4359L96.2062 32.7781L93.826 35.4877H94.6064L96.9867 32.7781L94.8249 30.4359H94.0367ZM97.0569 35.4877H97.6656V30.4359H97.0569V35.4877ZM98.5162 32.7781L100.686 30.4359H99.8976L97.7358 32.7781L100.116 35.4877H100.889L98.5162 32.7781ZM101.839 35.4877H102.448V33.0536H105.336V35.4877H105.944V30.4359H105.336V32.5178H102.448V30.4359H101.839V35.4877ZM107.029 32.9618C106.998 34.3931 108.239 35.6025 109.698 35.5719C111.142 35.5948 112.406 34.4084 112.375 32.9618C112.406 31.5151 111.142 30.3287 109.698 30.3517C108.239 30.3287 106.998 31.5151 107.029 32.9618ZM111.743 32.9541C111.766 34.1099 110.837 35.0361 109.706 35.0208C108.543 35.0208 107.661 34.1252 107.661 32.9541C107.661 31.783 108.543 30.9028 109.706 30.9028C110.837 30.8798 111.766 31.8137 111.743 32.9541ZM113.165 33.3292H115.03V32.8317H113.165V33.3292ZM116.16 35.4877H116.769V33.3751H117.97C118.969 33.3751 119.617 32.7628 119.617 31.8979C119.617 31.0482 118.969 30.4359 117.97 30.4359H116.16V35.4877ZM116.769 32.8393V30.9717H117.955C118.61 30.9717 118.985 31.3544 118.985 31.9055C118.985 32.4643 118.61 32.8393 117.955 32.8393H116.769ZM120.633 35.4877H124.028V34.9519H121.242V33.0536H123.302V32.5178H121.242V30.9717H123.934V30.4359H120.633V35.4877ZM129.58 30.3517L127.418 33.268L125.272 30.3517H125.054V35.4877H125.662V31.8519L127.317 34.0563H127.535L129.182 31.8672V35.4877H129.791V30.3517H129.58ZM130.875 32.9618C130.844 34.3931 132.085 35.6025 133.544 35.5719C134.988 35.5948 136.252 34.4084 136.221 32.9618C136.252 31.5151 134.988 30.3287 133.544 30.3517C132.085 30.3287 130.844 31.5151 130.875 32.9618ZM135.589 32.9541C135.612 34.1099 134.684 35.0361 133.552 35.0208C132.389 35.0208 131.508 34.1252 131.508 32.9541C131.508 31.783 132.389 30.9028 133.552 30.9028C134.684 30.8798 135.612 31.8137 135.589 32.9541ZM137.308 35.4877H137.917V33.0536H140.804V35.4877H141.413V30.4359H140.804V32.5178H137.917V30.4359H137.308V35.4877ZM144.082 35.4877H144.691V30.9717H146.509V30.4359H142.271V30.9717H144.082V35.4877ZM147.368 35.4877H147.977V33.0536H150.864V35.4877H151.473V30.4359H150.864V32.5178H147.977V30.4359H147.368V35.4877ZM152.558 32.9618C152.527 34.3931 153.768 35.6025 155.227 35.5719C156.671 35.5948 157.935 34.4084 157.904 32.9618C157.935 31.5151 156.671 30.3287 155.227 30.3517C153.768 30.3287 152.527 31.5151 152.558 32.9618ZM157.272 32.9541C157.295 34.1099 156.366 35.0361 155.235 35.0208C154.072 35.0208 153.19 34.1252 153.19 32.9541C153.19 31.783 154.072 30.9028 155.235 30.9028C156.366 30.8798 157.295 31.8137 157.272 32.9541ZM158.991 35.4877H162.385V34.9519H159.599V33.0536H161.66V32.5178H159.599V30.9717H162.292V30.4359H158.991V35.4877ZM165.262 32.9618C165.231 34.3931 166.472 35.6025 167.931 35.5719C169.375 35.5948 170.639 34.4084 170.608 32.9618C170.639 31.5151 169.375 30.3287 167.931 30.3517C166.472 30.3287 165.231 31.5151 165.262 32.9618ZM169.976 32.9541C169.999 34.1099 169.071 35.0361 167.939 35.0208C166.776 35.0208 165.894 34.1252 165.894 32.9541C165.894 31.783 166.776 30.9028 167.939 30.9028C169.071 30.8798 169.999 31.8137 169.976 32.9541ZM171.695 35.4877H173.435C174.489 35.4877 175.152 34.86 175.152 33.9875C175.152 33.1302 174.489 32.5025 173.435 32.5025H172.304V30.9717H174.746V30.4359H171.695V35.4877ZM172.304 34.9519V33.0383H173.427C174.122 33.0383 174.52 33.4364 174.52 33.9951C174.52 34.5539 174.122 34.9519 173.427 34.9519H172.304ZM182.333 36.5669H182.941V34.9519H182.317V30.4359H181.708V34.9519H179.562V30.4359H178.953V34.9519H176.815V30.4359H176.206V35.4877H182.333V36.5669ZM183.888 35.4877H187.283V34.9519H184.497V33.0536H186.557V32.5178H184.497V30.9717H187.189V30.4359H183.888V35.4877ZM187.821 32.9618C187.79 34.4084 189.038 35.5948 190.498 35.5719C191.411 35.5719 192.207 35.1509 192.636 34.485L192.183 34.1329C191.785 34.6916 191.216 35.0208 190.505 35.0208C189.343 35.0208 188.453 34.1329 188.453 32.9618C188.453 31.7907 189.343 30.9028 190.505 30.9028C191.216 30.9028 191.785 31.2319 192.183 31.7907L192.636 31.4386C192.199 30.7727 191.411 30.3517 190.498 30.3517C189.038 30.3287 187.79 31.5151 187.821 32.9618ZM194.984 35.4877H195.592V30.9717H197.411V30.4359H193.173V30.9717H194.984V35.4877ZM202.024 34.0334C202.024 33.3828 201.649 32.8929 201.017 32.7092C201.329 32.4719 201.508 32.1351 201.508 31.7142C201.508 31.3391 201.376 31.0329 201.11 30.7957C200.845 30.5584 200.486 30.4359 200.041 30.4359H198.27V35.4877H200.393C201.399 35.4877 202.024 34.8753 202.024 34.0334ZM199.979 30.9717C200.572 30.9717 200.884 31.2702 200.884 31.7524C200.884 32.2346 200.564 32.5408 199.979 32.5408H198.879V30.9717H199.979ZM201.399 34.0181C201.399 34.5768 201.009 34.9519 200.33 34.9519H198.879V33.0843H200.33C201.009 33.0843 201.399 33.4593 201.399 34.0181ZM202.743 32.9618C202.712 34.3931 203.953 35.6025 205.412 35.5719C206.856 35.5948 208.12 34.4084 208.089 32.9618C208.12 31.5151 206.856 30.3287 205.412 30.3517C203.953 30.3287 202.712 31.5151 202.743 32.9618ZM207.457 32.9541C207.48 34.1099 206.551 35.0361 205.42 35.0208C204.257 35.0208 203.375 34.1252 203.375 32.9541C203.375 31.783 204.257 30.9028 205.42 30.9028C206.551 30.8798 207.48 31.8137 207.457 32.9541Z" fill="#303030"/>
<rect y="1" width="62" height="38" fill="white"/>
<path d="M33.4508 1L57.2366 15.6248L57.2366 21.4747L33.4508 14.7891V1Z" fill="#303030"/>
<path d="M33.4526 1.00061L13.9946 9.35697V15.6247L33.4526 14.789V1.00061Z" fill="#E7B14B"/>
<path d="M24.3728 14.3712L53.1893 22.9371V27.3246L24.3728 23.9818V14.3712Z" fill="#303030"/>
<path d="M24.3746 14.3718L2.49181 20.6389L2.49178 28.3691L24.3746 23.9818V14.3718Z" fill="#E7B14B"/>
<path d="M38.6527 27.7424L60.6449 30.8763V36.5172H38.6527V27.7424Z" fill="#303030"/>
<path d="M38.6544 27.743L13.5686 29.8317V36.5173H38.6544V27.743Z" fill="#E7B14B"/>
<path opacity="0.1" d="M38.7043 30.2494L24.0063 28.9959L38.7043 27.7423L60.6449 30.8762V34.4279L38.7043 30.2494Z" fill="#303030"/>
<path d="M24.4323 13.5355L1.85274 19.5943V29.4138L24.4323 24.8174L53.8284 27.8438V22.6875L24.4323 13.5355Z" stroke="white" stroke-width="4"/>
</g>
<defs>
<clipPath id="clip0">
<rect width="210" height="38.271" fill="white"/>
</clipPath>
</defs>
</svg>
