<svg width="100" height="100" viewBox="0 0 100 100" fill="none" xmlns="http://www.w3.org/2000/svg">
<path d="M99.0867 34.7011H92.8202C91.0988 30.3091 86.8669 27.4166 82.1505 27.4077C77.4332 27.3981 73.1901 30.2746 71.4527 34.6603H64.9564C63.2125 30.2987 58.9895 27.439 54.293 27.439C49.5958 27.439 45.3728 30.2987 43.6297 34.6603H37.1085C35.3415 30.3219 31.1296 27.4798 26.4452 27.4662C26.1929 27.4654 25.9534 27.58 25.7972 27.7778L0.172222 60.6705C-0.0184237 60.918 -0.0520669 61.2521 0.0857103 61.5316C0.223488 61.812 0.507853 61.9898 0.820255 61.9906C5.02727 61.997 8.77128 64.662 10.1547 68.6352C10.2676 68.9692 10.5816 69.1935 10.9341 69.1927H18.5623C18.9123 69.1903 19.2215 68.966 19.3337 68.6352C20.713 64.6564 24.4611 61.989 28.6721 61.989C32.8831 61.989 36.6311 64.6564 38.0105 68.6352C38.1226 68.966 38.4318 69.1903 38.7819 69.1927H46.4101C46.7778 69.2119 47.1126 68.9836 47.2304 68.6352C48.5729 64.6212 52.3321 61.9145 56.5648 61.9145C60.7974 61.9145 64.5566 64.6212 65.8992 68.6352C66.0169 68.9836 66.3517 69.2119 66.7194 69.1927H69.0905C69.5431 69.1927 69.9107 68.8258 69.9107 68.3724C69.9107 67.9198 69.5431 67.5522 69.0905 67.5522H67.1792C65.4354 63.1913 61.2123 60.3309 56.5159 60.3309C51.8187 60.3309 47.5956 63.1913 45.8526 67.5522H40.3647L48.2228 57.4712H55.5643C55.8182 57.4704 56.0569 57.3526 56.2123 57.1516L72.6583 36.03C72.7007 35.9667 72.7336 35.8971 72.7568 35.825C72.7568 35.825 72.7568 35.7753 72.7568 35.7513C74.0817 31.8158 77.7336 29.1356 81.8845 29.0507C86.0363 28.9665 89.7939 31.4954 91.2782 35.374L84.4703 44.1092C82.5358 40.1778 78.533 37.6898 74.1514 37.6954C73.698 37.6954 73.3311 38.0622 73.3311 38.5156C73.3311 38.9682 73.698 39.3359 74.1514 39.3359C78.2006 39.3479 81.8349 41.8223 83.3296 45.5855L76.0298 55.0104C74.0809 51.099 70.0886 48.6254 65.7189 48.6206C65.2655 48.6206 64.8987 48.9883 64.8987 49.4409C64.8987 49.8943 65.2655 50.2611 65.7189 50.2611C69.7569 50.2715 73.3848 52.7315 74.8891 56.4787L70.1158 62.6058C69.9147 62.8357 69.8571 63.1577 69.9676 63.4421C70.0773 63.7272 70.3369 63.9267 70.6397 63.9611C70.9433 63.9964 71.2404 63.8594 71.4111 63.6071L76.202 57.4712H80.9593L70.3617 71.0711H65.0789C64.6776 71.0775 64.3307 70.7931 64.2587 70.3982C63.5337 66.7055 60.296 64.042 56.5319 64.042C52.7679 64.042 49.5309 66.7055 48.8052 70.3982C48.7331 70.7931 48.3862 71.0775 47.9849 71.0711H37.2231C36.8218 71.0775 36.4749 70.7931 36.4028 70.3982C35.6771 66.7055 32.4401 64.042 28.6761 64.042C24.912 64.042 21.6751 66.7055 20.9493 70.3982C20.8773 70.7931 20.5304 71.0775 20.1291 71.0711H9.37526C8.97474 71.0775 8.6271 70.7931 8.555 70.3982C7.83568 66.6975 4.5907 64.0268 0.820255 64.0332C0.366872 64.0332 0 64.4009 0 64.8535C0 65.3069 0.366872 65.6737 0.820255 65.6737C3.80409 65.6737 6.36979 67.7893 6.93933 70.7186C7.16281 71.8961 8.20175 72.7412 9.40009 72.7196H20.1451C21.3435 72.7412 22.3824 71.8961 22.6059 70.7186C23.1674 67.7837 25.7339 65.6617 28.7209 65.6617C31.7088 65.6617 34.2753 67.7837 34.836 70.7186C35.0595 71.8961 36.0992 72.7412 37.2968 72.7196H48.0426C49.2401 72.7412 50.2799 71.8961 50.5034 70.7186C51.0729 67.7901 53.6386 65.6753 56.6224 65.6753C59.6063 65.6753 62.1712 67.7901 62.7415 70.7186C62.965 71.8961 64.0039 72.7412 65.2023 72.7196H70.8864C71.0025 72.7196 71.1171 72.694 71.2228 72.6459L71.2965 72.597C71.3718 72.5514 71.4407 72.4961 71.5016 72.4328L99.8252 36.0629C100.02 35.8145 100.055 35.4765 99.9149 35.1929C99.7747 34.8669 99.4407 34.6683 99.0867 34.7011ZM42.5716 36.3008L35.8373 44.8966H30.0955L36.8298 36.3008H42.5716ZM34.5653 46.5371L27.3312 55.8307H21.5894L28.8155 46.5451L34.5653 46.5371ZM26.8225 29.1147C30.6827 29.2765 34.0967 31.6684 35.5666 35.2426L28.6761 44.0932C26.9835 40.7265 23.7642 38.3907 20.0386 37.8259L26.8225 29.1147ZM18.8498 39.3599C22.7028 39.561 26.0896 41.9809 27.5274 45.5615L20.1868 55.0104C18.4902 51.6453 15.2612 49.3159 11.5324 48.7688L18.8498 39.3599ZM2.37906 60.4654L10.3109 50.2779C14.1646 50.4734 17.557 52.8805 19.0133 56.4539L11.0574 66.6662C9.35123 63.3051 6.11106 60.9901 2.37906 60.4654ZM47.9689 55.0761C46.0368 51.1367 42.0373 48.6342 37.65 48.6206C37.1966 48.6206 36.8298 48.9883 36.8298 49.4409C36.8298 49.8943 37.1966 50.2611 37.65 50.2611C41.7113 50.2707 45.3543 52.7627 46.8362 56.5444L38.9541 66.6911C36.9475 62.6106 32.7213 60.0986 28.1778 60.2844C23.6344 60.4711 19.6292 63.3211 17.9639 67.5522H12.4841L20.3422 57.4712H27.7245C27.9784 57.4704 28.2179 57.3526 28.3725 57.1516L44.7776 36.038C44.8537 35.9339 44.905 35.8129 44.925 35.6856C46.2691 31.7934 49.8938 29.1492 54.0103 29.0579C58.1268 28.9665 61.8652 31.4465 63.3807 35.2755L56.5159 44.126C54.5718 40.193 50.5674 37.7018 46.1802 37.6954C45.7276 37.6954 45.3599 38.0622 45.3599 38.5156C45.3599 38.9682 45.7276 39.3359 46.1802 39.3359C50.235 39.3431 53.8757 41.8231 55.3672 45.5943L47.9689 55.0761ZM55.1293 55.8227H49.4692L56.6961 46.5371H62.3554L55.1293 55.8227ZM63.6683 44.8966H58.0082L64.7184 36.3008H70.3777L63.6683 44.8966ZM82.2386 55.8307H77.4733L84.7074 46.5451H89.4655L82.2386 55.8307ZM90.7447 44.9046H85.9794L92.6071 36.3416H97.3725L90.7447 44.9046Z" fill="#E7B14B"/>
</svg>
