<svg width="80" height="80" viewBox="0 0 80 80" fill="none" xmlns="http://www.w3.org/2000/svg">
<path d="M79.3524 51.0892H68.5057V40.8512C68.5057 40.4936 68.2158 40.2037 67.8582 40.2037H41.7031L53.3592 35.3081C55.1046 34.578 55.9276 32.5713 55.1975 30.8258C55.0244 30.4119 54.7716 30.036 54.4536 29.7196L49.9919 25.2514L51.8504 23.3929L52.893 24.4355C53.0152 24.5568 53.1807 24.6243 53.3528 24.6233C53.5248 24.6243 53.6903 24.5568 53.8125 24.4355L65.8766 12.3714C67.3264 10.916 67.3264 8.5621 65.8766 7.1067L65.6824 6.91243C64.227 5.4627 61.8731 5.4627 60.4177 6.91243L48.3536 18.9506C48.1025 19.2032 48.1025 19.6112 48.3536 19.8637L49.3702 20.8804L47.5117 22.7454L43.0435 18.2772C41.7016 16.9383 39.5286 16.9409 38.1899 18.2827C37.8765 18.5969 37.627 18.9688 37.4551 19.378L28.7194 40.2037H9.40262C9.04501 40.2037 8.75506 40.4936 8.75506 40.8512C8.75506 41.2089 9.04501 41.4988 9.40262 41.4988H22.4122V51.0892H1.29513V41.4988H5.04452C5.40214 41.4988 5.69208 41.2089 5.69208 40.8512C5.69208 40.4936 5.40214 40.2037 5.04452 40.2037H0.647564C0.289947 40.2037 0 40.4936 0 40.8512V51.7368C0 52.0944 0.289947 52.3843 0.647564 52.3843H11.5202V61.9942H0.647564C0.289947 61.9942 0 62.2841 0 62.6417V73.5273C0.0105229 73.8773 0.297394 74.1556 0.647564 74.1554H57.3094C57.667 74.1554 57.9569 73.8655 57.9569 73.5079C57.9569 73.1503 57.667 72.8603 57.3094 72.8603H46.1195V63.2893H67.2106V72.8797H61.7776C61.4199 72.8797 61.13 73.1697 61.13 73.5273C61.13 73.8849 61.4199 74.1749 61.7776 74.1749H67.8582C68.2158 74.1749 68.5057 73.8849 68.5057 73.5273V63.2893H79.3524C79.7101 63.2893 80 62.9994 80 62.6417V51.7368C80 51.3792 79.7101 51.0892 79.3524 51.0892ZM46.1195 41.4988H67.2106V51.0892H46.1195V41.4988ZM61.3307 7.7996C62.2825 6.85545 63.8175 6.85545 64.7693 7.7996L64.9571 7.99386C65.9012 8.94562 65.9012 10.4807 64.9571 11.4324L53.3528 23.0368L50.7625 20.4465L49.7264 19.4104L61.3307 7.7996ZM50.374 21.7999L50.9632 22.4928L48.645 24.8046L44.5459 28.9231C44.3639 29.0942 44.0803 29.0942 43.8983 28.9231C43.7304 28.7399 43.7304 28.4588 43.8983 28.2756L50.374 21.7999ZM28.6417 43.7717L38.6595 19.9026C39.1169 18.8147 40.3698 18.3034 41.4577 18.7609C41.7141 18.8687 41.9471 19.0256 42.1434 19.2226L46.6051 23.6843L42.9335 27.356C42.2396 28.0499 42.2396 29.1747 42.9335 29.8686C43.6273 30.5624 44.7521 30.5624 45.446 29.8686L49.0788 26.171L53.5406 30.6327C54.3732 31.4692 54.3699 32.8223 53.5334 33.6549C53.3383 33.849 53.1078 34.0036 52.8541 34.1101L38.2322 40.2555L29.0044 44.1344C28.9008 44.1804 28.7793 44.157 28.7 44.0761C28.6153 43.9987 28.5917 43.875 28.6417 43.7717ZM23.7073 41.4988H28.1755L27.4308 43.2731C27.1854 43.8618 27.3212 44.5402 27.774 44.9892C28.2189 45.4499 28.904 45.5844 29.49 45.3259L38.6142 41.4988H44.8243V51.0892H23.7073V41.4988ZM12.8153 52.3843H33.9064V61.9942H12.8153V52.3843ZM22.4122 72.8797H1.29513V63.2893H22.4122V72.8797ZM44.8243 72.8797H23.7073V63.2893H44.8243V72.8797ZM56.3186 61.9942H35.2016V52.3843L45.4719 52.4038H56.3186V61.9942ZM78.7308 61.9942H57.6137V52.3843H78.7308V61.9942Z" fill="#E7B14B"/>
<path d="M62.1603 11.8209C61.9179 11.6132 61.5603 11.6132 61.3178 11.8209L58.5916 14.5472C58.3405 14.7997 58.3405 15.2077 58.5916 15.4602C58.7138 15.5815 58.8793 15.649 59.0513 15.648C59.2212 15.6474 59.384 15.5799 59.5046 15.4602L62.2309 12.734C62.4635 12.4624 62.4319 12.0536 62.1603 11.8209Z" fill="#E7B14B"/>
<path d="M56.8625 17.8368C56.8604 17.8368 56.8585 17.8361 56.8563 17.8361C56.8541 17.8361 56.8518 17.8368 56.8495 17.8368H56.8625Z" fill="#E7B14B"/>
<path d="M57.6268 16.2948C57.3977 16.1204 57.0811 16.1182 56.8496 16.2893L56.4092 16.7296C56.1552 16.9815 56.1536 17.3914 56.4055 17.6455C56.525 17.7659 56.687 17.8341 56.8564 17.8363C57.026 17.8355 57.1887 17.7688 57.3094 17.6492L57.7497 17.2024C57.9663 16.9178 57.9114 16.5114 57.6268 16.2948Z" fill="#E7B14B"/>
<path d="M41.3987 70.2441H34.0877C33.7301 70.2441 33.4402 70.5341 33.4402 70.8917C33.4402 71.2493 33.7301 71.5393 34.0877 71.5393H41.3987C41.7564 71.5393 42.0463 71.2493 42.0463 70.8917C42.0463 70.5341 41.7564 70.2441 41.3987 70.2441Z" fill="#E7B14B"/>
<path d="M14.6479 54.6896C14.2903 54.6896 14.0004 54.9796 14.0004 55.3372V59.8701C14.0004 60.2278 14.2903 60.5177 14.6479 60.5177C15.0055 60.5177 15.2955 60.2278 15.2955 59.8701V55.3372C15.2955 54.9796 15.0055 54.6896 14.6479 54.6896Z" fill="#E7B14B"/>
<path d="M60.4112 43.3638H56.0855C55.7279 43.3638 55.4379 43.6537 55.4379 44.0113C55.4379 44.369 55.7279 44.6589 56.0855 44.6589H60.4112C60.7688 44.6589 61.0588 44.369 61.0588 44.0113C61.0588 43.6537 60.7688 43.3638 60.4112 43.3638Z" fill="#E7B14B"/>
<path d="M64.2901 43.3638H63.1698C62.8122 43.3638 62.5223 43.6537 62.5223 44.0113C62.5223 44.369 62.8122 44.6589 63.1698 44.6589H64.2901C64.6477 44.6589 64.9377 44.369 64.9377 44.0113C64.9377 43.6537 64.6477 43.3638 64.2901 43.3638Z" fill="#E7B14B"/>
</svg>
