<svg width="80" height="80" viewBox="0 0 80 80" fill="none" xmlns="http://www.w3.org/2000/svg">
<path d="M67.5491 63.3877C69.4086 63.3877 70.9164 61.8799 70.9164 60.0204C70.9164 58.1608 69.4086 56.6531 67.5491 56.6531C65.6895 56.6531 64.1818 58.1608 64.1818 60.0204C64.1856 61.8787 65.6908 63.3839 67.5491 63.3877ZM67.5491 57.9582C68.6879 57.9582 69.6113 58.8816 69.6113 60.0204C69.6113 61.1592 68.6879 62.0826 67.5491 62.0826C66.4103 62.0826 65.4869 61.1592 65.4869 60.0204C65.4869 58.8816 66.4103 57.9582 67.5491 57.9582Z" fill="#E7B14B"/>
<path d="M28.3692 56.6531C26.5103 56.6569 25.0064 58.1659 25.0089 60.0249C25.0108 61.8831 26.5192 63.389 28.3781 63.3877C30.237 63.3864 31.7429 61.8793 31.7429 60.0204C31.7397 58.1596 30.23 56.6531 28.3692 56.6531ZM28.3692 62.0826C27.2311 62.0788 26.3115 61.1541 26.314 60.0159C26.3159 58.8778 27.24 57.9569 28.3781 57.9582C29.5163 57.9595 30.4378 58.8822 30.4378 60.0204C30.4346 61.1605 29.5093 62.0826 28.3692 62.0826Z" fill="#E7B14B"/>
<path d="M10.8087 56.6531C8.94915 56.6531 7.44202 58.1608 7.44202 60.0204C7.44202 61.8799 8.94915 63.3877 10.8087 63.3877C12.6689 63.3877 14.176 61.8799 14.176 60.0204C14.1728 58.1621 12.667 56.6569 10.8087 56.6531ZM10.8087 62.0826C9.6699 62.0826 8.74714 61.1592 8.74714 60.0204C8.74714 58.8816 9.6699 57.9582 10.8087 57.9582C11.9475 57.9582 12.8709 58.8816 12.8709 60.0204C12.8677 61.1579 11.9462 62.0788 10.8087 62.0826Z" fill="#E7B14B"/>
<path d="M7.40884 44.4896L7.48085 44.5418L9.47741 49.7228C4.30153 50.3945 0.425673 54.8006 0.419937 60.0204C0.419937 60.3805 0.712443 60.673 1.0725 60.673C1.43319 60.673 1.72506 60.3805 1.72506 60.0204C1.7206 56.1586 4.15814 52.7161 7.80204 51.4377C11.4459 50.1593 15.5002 51.3249 17.9085 54.343C18.0314 54.4947 18.2163 54.5832 18.4113 54.5845L23.1946 54.6234C21.9978 55.773 21.2171 57.2884 20.9756 58.9307H18.2092C17.621 54.9707 14.0192 52.1769 10.0376 52.5912C6.05656 53.0054 3.10729 56.4817 3.3469 60.4773C3.58652 64.473 6.93026 67.5714 10.9329 67.5064C14.935 67.442 18.1767 64.2372 18.287 60.2358H20.8972C21.017 64.278 24.3283 67.493 28.3724 67.493C32.4165 67.493 35.7283 64.278 35.8475 60.2358H60.0707C60.1905 64.278 63.5017 67.493 67.5458 67.493C71.5899 67.493 74.9018 64.278 75.021 60.2358H76.9398C78.6292 60.2282 79.9961 58.8587 79.9999 57.1686V54.5584C79.9999 54.1977 79.708 53.9058 79.3474 53.9058C78.9873 53.9058 78.6948 54.1977 78.6948 54.5584V57.1686C78.6948 58.1392 77.9097 58.9269 76.9398 58.9307H74.9426C74.4168 55.2492 71.2643 52.5153 67.5458 52.5153C63.8274 52.5153 60.6748 55.2492 60.1491 58.9307H35.7691C35.5282 57.2948 34.7527 55.7851 33.5635 54.6368H59.5812C59.9419 54.6368 60.2338 54.3443 60.2338 53.9842C60.2338 53.6235 59.9419 53.3317 59.5812 53.3317H36.0043V52.196L45.4014 49.2009C46.2528 48.9358 46.9098 48.2539 47.1437 47.393L51.783 30.6418C52.0188 29.784 51.8085 28.8644 51.2222 28.1947L44.4748 20.4882C44.3805 20.3799 44.2512 20.3078 44.109 20.2855H44.0504L16.7015 12.6575H16.6428C16.5071 12.6116 16.3605 12.6116 16.2254 12.6575L6.47588 15.7896C5.63724 16.0643 4.9936 16.7443 4.7661 17.5976L0.100667 34.3487C-0.145318 35.2084 0.0662542 36.1344 0.661462 36.8022L7.40884 44.4896ZM10.8087 66.2C7.39036 66.2038 4.61698 63.4342 4.61634 60.0159C4.61507 56.5976 7.38654 53.8262 10.8048 53.8274C14.2231 53.8287 16.9921 56.6021 16.9889 60.0204C16.9851 63.4317 14.2206 66.1962 10.8087 66.2ZM67.549 53.8013C70.9667 53.7975 73.7394 56.5658 73.742 59.9834C73.7445 63.4005 70.9749 66.1726 67.5579 66.1739C64.1403 66.1751 61.3694 63.4049 61.3694 59.9879C61.3911 56.5881 64.1492 53.8408 67.549 53.8338V53.8013ZM10.8348 49.6247L9.07976 45.0567L13.7783 46.3619L15.4359 50.7214C14.0071 50.0058 12.4324 49.6304 10.8348 49.6247ZM18.7242 53.2858C18.2895 52.7772 17.8065 52.3114 17.282 51.8959L15.3243 46.7927L20.2517 48.1564L22.2546 53.3119L18.7242 53.2858ZM21.8308 48.5942L27.0513 50.0427L28.0168 52.5485C26.9659 52.5956 25.9367 52.8626 24.9955 53.3317H23.6904L21.8308 48.5942ZM34.5558 60.0204C34.5558 63.4368 31.7862 66.2064 28.3692 66.2064C24.9528 66.2064 22.1832 63.4368 22.1832 60.0204C22.1832 56.6034 24.9528 53.8338 28.3692 53.8338C31.7843 53.8376 34.552 56.6053 34.5558 60.0204ZM34.6992 53.3317H31.7238C31.0119 52.9742 30.2472 52.7339 29.4589 52.6205L28.6368 50.506L34.6992 52.1833V53.3317ZM45.8775 47.0278C45.7532 47.4592 45.4231 47.8015 44.9968 47.9417L36.2847 50.7412L42.9148 26.8048L49.6756 33.3304L45.8775 47.0278ZM44.2002 22.1521L50.2364 29.0365C50.5352 29.3749 50.6436 29.8414 50.5238 30.2766L50.0669 31.908L43.3131 25.3824L44.2002 22.1521ZM18.5285 18.3151L16.0164 17.6167L16.9819 14.1123L43.0843 21.3364L42.1189 24.8407L21.7327 19.1831C21.3726 19.0945 21.0088 19.315 20.9202 19.6757C20.8322 20.0364 21.0527 20.3996 21.4128 20.4882L41.7531 26.1L34.9012 50.8584L8.79872 43.6344L15.664 18.8765L18.1831 19.5744C18.2411 19.5807 18.3004 19.5807 18.359 19.5744C18.7197 19.6215 19.0498 19.3672 19.0963 19.0065C19.1435 18.6465 18.8892 18.3164 18.5285 18.2692V18.3151ZM1.35991 34.6941L5.99921 17.943C6.11519 17.5064 6.44848 17.161 6.88055 17.0297L15.599 14.2302L7.68287 42.8187L1.64668 35.9279C1.34461 35.594 1.23628 35.1275 1.35991 34.6941Z" fill="#E7B14B"/>
<path d="M50.8436 40.9916V50.5646H48.5335C48.1729 50.5646 47.881 50.8572 47.881 51.2172C47.881 51.5779 48.1729 51.8698 48.5335 51.8698H51.4962C51.8563 51.8698 52.1488 51.5779 52.1488 51.2172V40.9916C52.1488 40.6309 51.8563 40.3391 51.4962 40.3391C51.1355 40.3391 50.8436 40.6309 50.8436 40.9916Z" fill="#E7B14B"/>
<path d="M72.665 39.9605L66.5701 31.0986C66.4484 30.9234 66.249 30.8182 66.0348 30.8182H54.1976C53.8375 30.8182 53.545 31.1101 53.545 31.4708V51.2172C53.545 51.5779 53.8375 51.8697 54.1976 51.8697H62.3807C62.5057 51.8697 62.628 51.8334 62.7332 51.7652C65.6633 49.8681 69.4347 49.8681 72.3648 51.7652C72.47 51.8334 72.5923 51.8697 72.7172 51.8697H79.3473C79.708 51.8697 79.9999 51.5779 79.9999 51.2172V44.248C79.9961 42.6848 78.914 41.3319 77.3897 40.9852L72.665 39.9605ZM78.6948 44.248V50.5646H72.9065C69.6252 48.5285 65.4728 48.5285 62.1915 50.5646H54.8502V32.1234H65.6894L71.0336 39.8885H57.9823V35.0401H64.5927C64.9534 35.0401 65.2453 34.7483 65.2453 34.3876C65.2453 34.0275 64.9534 33.735 64.5927 33.735H57.3495C56.9895 33.735 56.697 34.0275 56.697 34.3876V40.541C56.697 40.9017 56.9895 41.1936 57.3495 41.1936H72.2017L77.0959 42.2642C78.0269 42.4713 78.6903 43.2947 78.6948 44.248Z" fill="#E7B14B"/>
<path d="M59.666 43.0404H58.0671C57.7071 43.0404 57.4146 43.3329 57.4146 43.693C57.4146 44.0537 57.7071 44.3455 58.0671 44.3455H59.666C60.0267 44.3455 60.3186 44.0537 60.3186 43.693C60.3186 43.3329 60.0267 43.0404 59.666 43.0404Z" fill="#E7B14B"/>
</svg>
