<svg width="80" height="80" viewBox="0 0 80 80" fill="none" xmlns="http://www.w3.org/2000/svg">
<g clip-path="url(#clip0)">
<path d="M0.655454 48.4857H3.49362C3.85527 48.4857 4.14907 48.1919 4.14907 47.8303C4.14907 47.468 3.85527 47.1748 3.49362 47.1748H0.655454C0.293162 47.1748 0 47.468 0 47.8303C0 48.1919 0.293162 48.4857 0.655454 48.4857Z" fill="#E7B14B"/>
<path d="M32.7727 29.0711C32.2517 28.5641 31.4804 28.4124 30.8063 28.6845C27.9746 29.772 23.8191 30.8736 20.9284 30.8736C18.0378 30.8736 11.3194 35.239 7.50508 40.4039C0.891646 40.0826 0.458944 40.4039 0.29508 40.5479C0.0601667 40.756 0.00575884 41.1022 0.165782 41.3724C0.325805 41.6425 0.654812 41.7615 0.950535 41.6559C3.22862 41.542 5.51183 41.5657 7.78672 41.7276C8.00947 41.7379 8.22134 41.6342 8.35064 41.4524C12.1323 36.1627 18.5889 32.1845 20.9284 32.1845C23.9894 32.1845 28.3286 31.0438 31.2781 29.9032C31.4682 29.8315 31.6833 29.8738 31.8311 30.0133C31.979 30.1528 32.034 30.3647 31.9732 30.5587C31.2128 32.781 27.7915 34.8978 25.0775 35.488H24.9988C24.7632 35.5731 19.1458 37.5849 17.1333 43.1761C17.0104 43.5167 17.1865 43.8918 17.527 44.0153C17.8669 44.1382 18.2426 43.9622 18.3655 43.6223C20.0963 38.837 24.9597 36.9103 25.4053 36.74C26.4896 36.4872 27.5355 36.0948 28.5187 35.5731L27.5291 36.8776C27.483 36.934 27.4471 36.998 27.4241 37.0677C26.0511 36.6491 24.5629 37.1401 23.7077 38.2929L22.6522 39.84C22.6349 39.8649 22.6196 39.8912 22.6068 39.9187C22.4205 40.329 22.3699 40.7886 22.4621 41.2296C22.3034 41.2168 22.1433 41.2168 21.984 41.2296C21.0936 41.35 20.2884 41.8217 19.7488 42.5405L19.3749 43.0321C18.9333 43.6152 18.7547 44.3565 18.8834 45.0772C18.9211 45.2763 18.9826 45.4696 19.0671 45.6539C18.3092 45.8018 17.6307 46.2211 17.1596 46.8336C16.6065 47.587 16.4017 48.5414 16.5963 49.4554C16.6373 49.6219 16.6878 49.7864 16.7467 49.947C15.6362 49.8549 14.5544 50.3343 13.8759 51.2189C13.3677 51.9108 13.1513 52.7743 13.2729 53.6244C13.1436 53.6564 13.0265 53.7274 12.9388 53.8273L10.0085 57.3145C8.44473 59.2604 8.56507 62.0646 10.2908 63.869L5.04712 69.9781C4.81029 70.2514 4.83909 70.6649 5.11241 70.9017C5.38765 71.1373 5.80115 71.1053 6.03671 70.83L11.3456 64.6883C12.1208 65.1646 13.0118 65.4187 13.922 65.4225C14.1076 65.4353 14.2933 65.4353 14.4789 65.4225C15.7917 65.2823 16.9938 64.6211 17.815 63.5874L19.7814 61.1358C20.017 60.8337 19.9625 60.3978 19.6604 60.1623C19.3583 59.9273 18.9224 59.9811 18.6868 60.2839L17.2844 62.0403C17.255 61.9942 17.2198 61.9526 17.1794 61.9155L14.1384 59.4313C13.9585 59.27 13.7037 59.22 13.4765 59.3026C13.2486 59.3852 13.0854 59.5862 13.0508 59.8262C13.0169 60.0656 13.1174 60.3044 13.312 60.4477L16.3864 62.9057C16.4228 62.9319 16.4625 62.9543 16.5041 62.971C15.1503 64.3856 12.9215 64.4803 11.4525 63.1854C9.98351 61.8911 9.79789 59.6675 11.0313 58.1466L13.7255 54.9353C13.979 55.4019 14.3297 55.8083 14.7541 56.1278L19.1919 59.4774C19.8409 59.9837 20.6366 60.2659 21.4597 60.2839C22.0627 60.2864 22.6554 60.1277 23.1771 59.8249C24.1129 59.2924 24.7114 58.3181 24.7632 57.2422C24.7696 57.1135 24.7696 56.9842 24.7632 56.8555C25.443 57.3747 26.2739 57.6576 27.129 57.6621C27.7275 57.6704 28.3177 57.5212 28.84 57.2294C29.7694 56.7166 30.3672 55.7591 30.4197 54.6991C30.4357 54.5026 30.4357 54.3054 30.4197 54.1095C30.8332 54.2913 31.2787 54.3893 31.7306 54.3976C33.5434 54.3963 35.0354 52.9708 35.1193 51.16C35.1193 51.0742 35.1193 50.9891 35.1193 50.904C35.2588 50.9392 35.4016 50.959 35.5456 50.9629C36.1793 50.9148 36.7861 50.6876 37.2956 50.3074C38.2513 49.7051 38.8491 48.6707 38.8946 47.5416C38.9483 46.4528 38.4567 45.4088 37.5836 44.7559L36.1025 43.6415L34.6341 42.4816L38.7569 37.238C38.8657 37.101 38.915 36.9263 38.8946 36.7528C38.8856 36.5762 38.8049 36.4104 38.6718 36.2939L36.2465 34.4325L45.4952 22.8046C48.108 19.5478 52.8473 18.9826 56.1527 21.5334L58.2503 23.1586C58.5364 23.3813 58.9486 23.3301 59.1714 23.044C59.3935 22.7579 59.3423 22.3456 59.0562 22.1229L56.9592 20.4977C53.0828 17.5129 47.5326 18.1742 44.4659 21.9853L35.1846 33.6394L32.838 31.8369C32.9935 31.5745 33.1228 31.298 33.2253 31.0112C33.4672 30.3314 33.2905 29.5736 32.7727 29.0711ZM22.5216 58.6907C21.6921 59.1234 20.6859 59.0287 19.9523 58.4481L15.5145 55.0991C14.4981 54.4187 14.2228 53.0444 14.8988 52.0248C15.2822 51.5261 15.882 51.2407 16.5112 51.2579C17.0572 51.2554 17.5891 51.4327 18.025 51.763L20.7908 53.8471L22.4621 55.1119C23.1156 55.5805 23.4875 56.3473 23.4523 57.1506C23.4261 57.7894 23.0747 58.3706 22.5216 58.6907ZM28.1781 56.0689C27.3217 56.4862 26.3014 56.3742 25.5563 55.7808L21.5577 52.759L19.4409 51.16L18.8968 50.7535C18.377 50.3733 18.016 49.8158 17.881 49.1866C17.7632 48.6419 17.8822 48.0722 18.2087 47.6203C18.5505 47.1793 19.0671 46.9092 19.6246 46.8797C20.266 46.8381 20.9003 47.034 21.4072 47.4302L26.1657 51.0217L28.0732 52.4575C28.7587 52.9491 29.1523 53.7511 29.1216 54.5941C29.096 55.2233 28.7395 55.7917 28.1845 56.0887L28.1781 56.0689ZM32.8316 52.7526C32.0981 53.2057 31.1622 53.1641 30.4722 52.6476L28.84 51.4352L22.1741 46.4009C21.7298 46.0681 21.2203 45.8312 20.6795 45.7064C20.3908 45.5003 20.1975 45.186 20.1443 44.8353C20.0912 44.4845 20.1827 44.1273 20.3978 43.845L20.7646 43.3534C21.0955 42.9092 21.5922 42.6186 22.1414 42.5469C22.7009 42.4701 23.2673 42.6212 23.7141 42.9668L31.4554 48.2105L32.9827 49.3639C33.5287 49.7774 33.8372 50.4329 33.8071 51.1171C33.777 51.802 33.4122 52.428 32.8316 52.7916V52.7526ZM35.303 44.6381L36.797 45.7653C37.325 46.1596 37.6201 46.792 37.5836 47.45C37.5516 48.149 37.1797 48.7878 36.5877 49.1604C35.6896 49.7307 35.4534 49.7569 34.9157 49.3505C34.8338 49.289 34.7365 49.2506 34.6341 49.2391C34.4094 48.8678 34.1182 48.5414 33.7757 48.2758L32.2222 47.1089L24.4746 41.9312C23.5835 41.3282 23.7212 40.738 23.773 40.5806L24.776 39.1058C25.4443 38.1981 26.7181 37.9965 27.6341 38.6539L35.303 44.6381ZM37.3218 36.9103L33.6048 41.6297L28.5385 37.6707L32.2747 33.0825L37.3218 36.9103Z" fill="#E7B14B"/>
<path d="M41.5163 60.5456C41.4075 60.682 41.357 60.8561 41.3768 61.0296C41.396 61.203 41.4843 61.3618 41.6213 61.4699C41.7385 61.5595 41.8806 61.6101 42.0278 61.614C42.2294 61.6152 42.4202 61.5231 42.5456 61.365L65.434 32.6498C65.66 32.3656 65.6133 31.9515 65.3291 31.7255C65.0449 31.4989 64.6314 31.5463 64.4048 31.8305L41.5163 60.5456Z" fill="#E7B14B"/>
<path d="M67.9182 27.4254C67.7627 27.6226 67.7332 27.8908 67.8421 28.1167C67.9509 28.342 68.1788 28.4867 68.4297 28.4873C68.6275 28.488 68.8156 28.399 68.9405 28.2447L73.4435 22.5953C73.6669 22.3124 73.6202 21.9027 73.3385 21.6774C73.0563 21.454 72.646 21.5014 72.4213 21.7824L67.9182 27.4254Z" fill="#E7B14B"/>
<path d="M75.6198 19.8685L78.1501 16.6891C78.3626 16.4062 78.312 16.0055 78.0355 15.7841C77.759 15.5626 77.357 15.601 77.1272 15.8698L74.5969 19.0492C74.49 19.1874 74.4433 19.3635 74.4664 19.5369C74.49 19.711 74.5816 19.8678 74.7217 19.9735C74.8408 20.0644 74.9855 20.1143 75.1346 20.1175C75.3247 20.1085 75.502 20.0176 75.6198 19.8685Z" fill="#E7B14B"/>
<path d="M46.5833 63.9279C46.7024 64.0169 46.847 64.0649 46.9962 64.0655C47.1946 64.0662 47.3822 63.9772 47.5076 63.8229L79.8214 23.277C79.991 23.0964 80.0454 22.8366 79.9609 22.6036C79.8764 22.3712 79.6684 22.2054 79.4226 22.176C79.1768 22.1466 78.9355 22.2579 78.7985 22.464L46.4847 63.0036C46.3746 63.1393 46.3234 63.3128 46.342 63.4863C46.3606 63.6597 46.447 63.8185 46.5833 63.9279Z" fill="#E7B14B"/>
<path d="M70.7429 12.5797C70.4101 12.4389 70.026 12.5945 69.8846 12.9273L67.2628 19.1279C67.1264 19.4588 67.2807 19.8384 67.6103 19.9798C67.6904 20.0157 67.7774 20.0336 67.8657 20.0323C68.1288 20.0317 68.3663 19.8742 68.4687 19.6323L71.0905 13.4381C71.2313 13.1053 71.0758 12.7212 70.7429 12.5797Z" fill="#E7B14B"/>
<path d="M72.1 8.92222C71.7594 8.79932 71.3843 8.97534 71.2608 9.31523L71.0252 9.97069C70.9023 10.3112 71.0784 10.6869 71.4182 10.8098C71.4899 10.8361 71.5648 10.8489 71.641 10.8495C71.9169 10.8489 72.1633 10.6761 72.2574 10.4168L72.493 9.76138C72.6159 9.42085 72.4398 9.04511 72.1 8.92222Z" fill="#E7B14B"/>
<path d="M66.791 21.959C66.6297 21.8918 66.4492 21.8912 66.2879 21.9577C66.1266 22.0243 65.9986 22.1523 65.932 22.313L64.7197 25.1908C64.5789 25.5237 64.7344 25.9077 65.0666 26.0492C65.1473 26.0857 65.2343 26.103 65.3226 26.1017C65.5857 26.1017 65.8232 25.9442 65.9256 25.7016L67.145 22.818C67.2122 22.6574 67.2122 22.4762 67.1463 22.3149C67.0797 22.1536 66.9517 22.0256 66.791 21.959Z" fill="#E7B14B"/>
<path d="M61.8156 16.4798C61.749 16.3185 61.621 16.1905 61.4603 16.1245C61.299 16.058 61.1179 16.0586 60.9572 16.1258C60.6231 16.2622 60.4618 16.643 60.5969 16.9778L62.825 22.4378C62.9613 22.7719 63.3422 22.9332 63.6776 22.7981C63.8395 22.7329 63.9688 22.6055 64.0367 22.4442C64.1045 22.2829 64.1045 22.1011 64.038 21.9398L61.8156 16.4798Z" fill="#E7B14B"/>
<path d="M59.8102 12.4357C59.6713 12.1035 59.2911 11.9461 58.9582 12.0818C58.6234 12.2181 58.4628 12.599 58.5978 12.9337L59.3839 14.8604C59.462 15.0915 59.661 15.2605 59.9017 15.2995C60.1424 15.3379 60.385 15.2393 60.5309 15.0441C60.6762 14.8489 60.7018 14.589 60.5969 14.3688L59.8102 12.4357Z" fill="#E7B14B"/>
<path d="M51.6368 38.4305C51.7617 38.5848 51.9499 38.6737 52.1476 38.6731C52.2955 38.6725 52.4389 38.6219 52.5541 38.5291L56.4868 35.3696C56.7294 35.134 56.7525 34.7519 56.54 34.4888C56.3275 34.2257 55.9498 34.1668 55.6675 34.3538L51.7348 37.5068C51.5991 37.6157 51.512 37.775 51.4935 37.9485C51.4755 38.122 51.5268 38.2954 51.6368 38.4305Z" fill="#E7B14B"/>
<path d="M57.221 33.921C57.3433 34.0759 57.5289 34.1675 57.726 34.17C57.8765 34.1694 58.0224 34.1156 58.1389 34.0196L61.5275 31.2928C61.8098 31.065 61.854 30.6508 61.6255 30.3685C61.3976 30.0863 60.9841 30.0421 60.7018 30.2706L57.3196 33.0038C57.0405 33.2304 56.9963 33.64 57.221 33.921Z" fill="#E7B14B"/>
<path d="M57.8502 28.5206H59.1611C59.5234 28.5206 59.8166 28.2268 59.8166 27.8652C59.8166 27.5029 59.5234 27.2097 59.1611 27.2097H57.8502C57.4886 27.2097 57.1948 27.5029 57.1948 27.8652C57.1948 28.2268 57.4886 28.5206 57.8502 28.5206Z" fill="#E7B14B"/>
<path d="M54.8027 27.1572L49.8932 27.0721C49.5309 27.0721 49.2378 27.3652 49.2378 27.7275C49.2378 28.0892 49.5309 28.383 49.8932 28.383L54.8091 28.4681C55.1708 28.4681 55.4646 28.1743 55.4646 27.8127C55.4646 27.6373 55.3948 27.4696 55.27 27.3467C55.1458 27.2238 54.9775 27.1553 54.8027 27.1572Z" fill="#E7B14B"/>
<path d="M0.655454 55.263H6.73825C6.81442 55.2604 6.88995 55.245 6.961 55.2169C7.42506 55.9203 8.08628 56.4721 8.86143 56.803C8.94592 56.8414 9.03745 56.8619 9.13027 56.8619C9.43815 56.8606 9.70379 56.6449 9.76844 56.3441C9.83309 56.0432 9.67947 55.7379 9.39911 55.6099C7.97682 54.9544 7.3937 53.7683 7.3937 51.4807C7.3937 51.119 7.0999 50.8252 6.73825 50.8252C6.37595 50.8252 6.08279 51.119 6.08279 51.4807C6.06487 52.3147 6.16664 53.1468 6.38427 53.9521H0.655454C0.293162 53.9521 0 54.2452 0 54.6075C0 54.9692 0.293162 55.263 0.655454 55.263Z" fill="#E7B14B"/>
</g>
<defs>
<clipPath id="clip0">
<rect width="80" height="80" fill="white"/>
</clipPath>
</defs>
</svg>
