<svg width="157" height="157" viewBox="0 0 157 157" fill="none" xmlns="http://www.w3.org/2000/svg">
<g opacity="0.2" clip-path="url(#clip0)">
<path d="M23.1319 59.5455C23.2488 60.0094 23.7139 60.2955 24.181 60.1821C57.0237 52.1608 82.7927 63.0061 98.6264 73.5166C113.723 83.5361 122.918 95.1639 125.009 97.953L116.594 96.5038C116.122 96.4228 115.674 96.74 115.593 97.2114C115.51 97.6859 115.828 98.132 116.3 98.2145L127.352 100.117C127.602 100.16 127.86 100.09 128.056 99.9268C128.251 99.7632 128.365 99.5215 128.366 99.2674L128.421 87.7807C128.422 87.6301 128.384 87.488 128.317 87.365C128.171 87.0945 127.886 86.9117 127.558 86.9093C127.08 86.9077 126.689 87.2939 126.686 87.7726L126.642 97.2447C125.033 95.0557 115.569 82.6962 99.6401 72.1096C83.5077 61.3873 57.2489 50.3219 23.7692 58.4999C23.3045 58.6106 23.0186 59.0809 23.1319 59.5455Z" fill="#303030"/>
</g>
<defs>
<clipPath id="clip0">
<rect width="115.636" height="115.636" fill="white" transform="translate(55.0253 156.73) rotate(-118.415)"/>
</clipPath>
</defs>
</svg>
