<svg width="80" height="80" viewBox="0 0 80 80" fill="none" xmlns="http://www.w3.org/2000/svg">
<path d="M53.0487 23.6983C52.7068 23.5868 52.3388 23.7734 52.2274 24.1153C51.0387 27.9684 50.5269 31.9984 50.7147 36.0266C50.7389 36.3685 51.0235 36.6334 51.3666 36.6327H51.4125C51.7703 36.6085 52.0409 36.2997 52.0186 35.9419C51.8575 32.0819 52.349 28.2224 53.4721 24.5259C53.5275 24.3604 53.5141 24.1789 53.4339 24.0236C53.3543 23.8676 53.2155 23.7505 53.0487 23.6983Z" fill="#E7B14B"/>
<path d="M53.7007 20.9663C53.588 21.305 53.7682 21.6705 54.105 21.7883C54.1744 21.7972 54.2444 21.7972 54.3131 21.7883C54.6041 21.8042 54.8696 21.6259 54.9651 21.3509C55.5986 19.9948 56.5988 18.843 57.8536 18.0262C58.1007 17.8142 58.1535 17.4526 57.9772 17.1788C57.8766 17.0375 57.7238 16.942 57.5525 16.914C57.3806 16.8859 57.2055 16.9273 57.0648 17.0286C54.4176 18.9131 53.7331 20.8816 53.7007 20.9663Z" fill="#E7B14B"/>
<path d="M63.8058 24.1675C64.0133 24.1694 64.2094 24.0726 64.3336 23.9071C66.0462 21.773 68.5088 20.3736 71.2185 19.9954C71.5782 19.9591 71.8411 19.6382 71.8048 19.2779C71.7692 18.9182 71.4477 18.6552 71.088 18.6915C67.9982 19.0913 65.1893 20.6881 63.2646 23.1373C63.0545 23.4264 63.1156 23.83 63.4015 24.044C63.5186 24.1286 63.6613 24.1726 63.8058 24.1675Z" fill="#E7B14B"/>
<path d="M71.6094 15.1707C71.864 15.4235 72.2747 15.4235 72.5287 15.1707C72.7815 14.9167 72.7815 14.5061 72.5287 14.2514L70.4035 12.1199C70.2807 11.9963 70.1145 11.9269 69.9407 11.9269C69.7669 11.9269 69.6001 11.9963 69.4778 12.1199C69.2251 12.3739 69.2251 12.7845 69.4778 13.0386L71.6094 15.1707Z" fill="#E7B14B"/>
<path d="M71.675 11.8461C71.7972 11.969 71.964 12.0384 72.1378 12.0384C72.3116 12.0384 72.4778 11.969 72.6007 11.8461C72.8534 11.5914 72.8534 11.1808 72.6007 10.9268L70.7486 9.07536C70.6264 8.95184 70.4596 8.88245 70.2858 8.88245C70.112 8.88245 69.9458 8.95184 69.8229 9.07536C69.5702 9.32938 69.5702 9.74003 69.8229 9.99406L71.675 11.8461Z" fill="#E7B14B"/>
<path d="M57.8599 57.9317C57.9268 57.9438 57.9949 57.9438 58.0618 57.9317C58.3559 57.9463 58.6233 57.7617 58.7137 57.4822C59.8947 53.6386 60.4041 49.62 60.2201 45.6033C60.1946 45.2436 59.8826 44.9717 59.5223 44.9972C59.1626 45.0227 58.8907 45.3346 58.9162 45.695C59.0804 49.5551 58.5889 53.4145 57.462 57.1104C57.3493 57.4465 57.5257 57.812 57.8599 57.9317Z" fill="#E7B14B"/>
<path d="M53.4594 64.7707C53.595 64.77 53.7274 64.7261 53.8375 64.6465C56.4912 62.7365 57.1756 60.7349 57.2017 60.6897C57.3035 60.3535 57.1215 59.9976 56.7898 59.8836C56.4581 59.7697 56.0958 59.9384 55.9691 60.2656C55.3318 61.6211 54.3297 62.7728 53.0748 63.5903C52.7864 63.8023 52.7227 64.2066 52.9316 64.4969C53.0532 64.6675 53.2493 64.7694 53.4594 64.7707Z" fill="#E7B14B"/>
<path d="M6.88423 45.695C6.9097 45.3346 6.63848 45.0227 6.27813 44.9972C5.91842 44.9717 5.60581 45.2436 5.58035 45.6033C5.39253 49.6315 5.90441 53.6615 7.09306 57.5146C7.1841 57.7941 7.45086 57.9788 7.745 57.9641C7.81185 57.9769 7.88061 57.9769 7.94746 57.9641C8.28935 57.8527 8.47589 57.4847 8.36448 57.1428C7.22867 53.4374 6.72825 49.5672 6.88423 45.695Z" fill="#E7B14B"/>
<path d="M9.818 60.2656C9.70085 59.9257 9.33031 59.7448 8.99033 59.8613C8.65354 59.9785 8.47336 60.3446 8.58605 60.6826C8.58605 60.768 9.29657 62.7365 11.9438 64.6465C12.0552 64.728 12.1902 64.7713 12.3284 64.7707C12.5378 64.7694 12.7346 64.6675 12.8562 64.4969C13.0637 64.2047 12.9969 63.8004 12.7065 63.5903C11.4542 62.7715 10.454 61.6205 9.818 60.2656Z" fill="#E7B14B"/>
<path d="M26.0975 61.6605C23.3878 61.2824 20.9252 59.883 19.2126 57.7489C19.112 57.6075 18.9592 57.5127 18.7873 57.484C18.616 57.456 18.4409 57.4974 18.3002 57.5993C18.0137 57.8125 17.9526 58.2168 18.1634 58.5052C20.0874 60.9557 22.897 62.5525 25.9867 62.9517H26.058C26.3922 62.9536 26.6736 62.7034 26.7099 62.3717C26.7265 62.1953 26.6705 62.0203 26.5546 61.8859C26.4393 61.7522 26.2738 61.6707 26.0975 61.6605Z" fill="#E7B14B"/>
<path d="M77.3273 3.27913H76.4531C74.9652 3.28295 73.7607 4.49007 73.7607 5.97859V6.16768C59.069 6.53503 47.3449 18.54 47.3245 33.2361V37.6825C47.0316 37.764 46.7604 37.9092 46.5293 38.1059C46.0543 38.5089 45.7806 39.1004 45.7793 39.723V41.4961C45.7825 42.5173 46.5153 43.3896 47.5199 43.5691V48.4135C47.5129 54.4968 42.5794 59.4246 36.4961 59.4246C36.1504 59.424 35.8645 59.6926 35.8442 60.0377C35.8193 58.7542 34.7733 57.7266 33.4904 57.7228H32.2324C31.0253 57.7241 30.0155 58.6402 29.8984 59.8416C29.8016 59.5914 29.5609 59.4252 29.2916 59.4246C23.2134 59.4176 18.2875 54.4917 18.2805 48.4135V43.9085C19.6602 43.7837 20.7177 42.6275 20.7189 41.2421V40.3877C20.7177 39.0023 19.6602 37.8461 18.2805 37.7214V9.14026C19.6602 9.01547 20.7177 7.85929 20.7189 6.47391V5.60041C20.7189 4.11316 19.5131 2.90796 18.0265 2.90796H2.69245C1.2052 2.90796 0 4.11316 0 5.60041V6.47391C0.00254665 7.76889 0.924436 8.87986 2.19713 9.12052V37.7411C0.924436 37.9818 0.00254665 39.0927 0 40.3877V41.2612C0 42.5575 0.923162 43.6697 2.19713 43.9085V48.4135C2.19713 63.095 14.8642 75.5016 29.8589 75.5016C29.9047 75.5073 29.9506 75.5073 29.9958 75.5016C30.3116 76.4655 31.2112 77.1181 32.2254 77.1181H35.4851C35.8454 77.1181 36.137 76.8265 36.137 76.4662C36.137 76.1065 35.8454 75.8142 35.4851 75.8142H32.2254C31.9452 75.8161 31.6753 75.7054 31.4767 75.5073C31.2787 75.3087 31.1679 75.0388 31.1691 74.7586V60.0765C31.1691 59.797 31.2812 59.529 31.4792 59.3323C31.6772 59.1349 31.9459 59.0254 32.2254 59.0267H33.4904C34.0698 59.0267 34.5403 59.4972 34.5403 60.0765V74.8497C34.5403 75.2094 34.8319 75.5016 35.1922 75.5016H36.4961C51.4462 75.48 63.5594 63.3636 63.5772 48.4135V43.5239C64.4934 43.275 65.1307 42.4454 65.1358 41.4961V38.5624C65.1358 38.2027 64.8436 37.9105 64.4838 37.9105C64.1235 37.9105 63.8319 38.2027 63.8319 38.5624V39.8204H55.454C55.0943 39.8204 54.8021 40.1127 54.8021 40.4724C54.8021 40.8327 55.0943 41.1243 55.454 41.1243H63.8319V41.4961C63.8281 41.9437 63.4645 42.3047 63.017 42.3047H47.8854C47.4378 42.3047 47.0736 41.9437 47.0705 41.4961V39.723C47.0698 39.3372 47.3436 39.0061 47.7224 38.9342C47.8077 38.9756 47.9013 38.9979 47.9962 38.9991H62.7496C63.1099 38.9991 63.4015 38.7076 63.4015 38.3472V33.2361C63.4123 27.3558 68.0371 22.5191 73.9109 22.2441C74.3018 23.2977 75.3039 23.9987 76.4277 24.0044H77.3012C78.789 24.0044 79.9962 22.7999 80 21.312V5.97859C79.9968 4.49898 78.8062 3.29696 77.3273 3.27913ZM1.30389 6.47391V5.60041C1.30389 4.83323 1.92591 4.21185 2.69245 4.21185H18.0265C18.793 4.21185 19.4151 4.83323 19.4151 5.60041V6.47391C19.4151 7.24046 18.793 7.86248 18.0265 7.86248H2.69245C1.92591 7.86248 1.30389 7.24046 1.30389 6.47391ZM13.978 23.6982C13.6176 23.6982 13.326 23.9898 13.326 24.3502V37.6953H3.50101V9.16636H16.9766V37.6953H14.6299V24.3502C14.6299 23.9898 14.3377 23.6982 13.978 23.6982ZM1.30389 41.3007V40.3877C1.30389 39.6212 1.92591 38.9991 2.69245 38.9991H18.0265C18.793 38.9991 19.4151 39.6212 19.4151 40.3877V41.2612C19.4151 42.0284 18.793 42.6504 18.0265 42.6504H2.69245C1.92591 42.6504 1.30389 42.0284 1.30389 41.2612V41.3007ZM29.8723 74.2366C15.5747 74.1977 3.50101 62.3908 3.50101 48.4135V43.9543H16.9766V48.4135C16.9836 55.2118 22.4933 60.7215 29.2916 60.7285C29.5386 60.7266 29.7634 60.5852 29.8723 60.3637V74.2366ZM48.8111 48.4135V43.6086H62.2733V48.4135C62.2593 62.6448 50.7275 74.1799 36.4961 74.1977H35.8442V60.1415C35.8773 60.4764 36.16 60.7304 36.4961 60.7285C43.2944 60.7215 48.8041 55.2118 48.8111 48.4135ZM73.7607 20.9536C67.2279 21.2999 62.1059 26.6937 62.0976 33.2361V37.6953H48.6284V33.2361C48.6481 19.26 59.7891 7.83828 73.7607 7.47156V20.9536ZM78.7222 21.312C78.7222 21.6813 78.5751 22.0359 78.3135 22.2963C78.0511 22.5567 77.6965 22.7025 77.3273 22.7006H76.4531C75.6866 22.7006 75.0646 22.0792 75.0646 21.312V5.97859C75.0646 5.21013 75.6853 4.58684 76.4531 4.58302H77.3273C78.0976 4.58302 78.7222 5.20759 78.7222 5.97859V21.312Z" fill="#E7B14B"/>
<path d="M14.6299 15.2688C14.6299 14.9084 14.3377 14.6168 13.978 14.6168C13.6176 14.6168 13.326 14.9084 13.326 15.2688V19.3695C13.326 19.7292 13.6176 20.0215 13.978 20.0215C14.3377 20.0215 14.6299 19.7292 14.6299 19.3695V15.2688Z" fill="#E7B14B"/>
</svg>
