<svg width="70" height="70" viewBox="0 0 70 70" fill="none" xmlns="http://www.w3.org/2000/svg">
<path d="M66.3575 20.7812C68.3659 20.7812 70 19.1473 70 17.1388V10.205C70 8.19643 68.3661 6.5625 66.3575 6.5625H58.5156V3.82812C58.5156 2.80738 58.1175 1.84625 57.3938 1.12082C56.6694 0.398125 55.7082 0 54.6875 0C52.5767 0 50.8594 1.71732 50.8594 3.82812V6.5625H18.7305V3.82812C18.7305 1.71732 17.0131 0 14.9023 0C13.8816 0 12.9205 0.398125 12.195 1.12178C11.4723 1.84625 11.0742 2.80738 11.0742 3.82812V6.5625H3.64246C1.63393 6.5625 0 8.19643 0 10.205V17.1389C0 19.1473 1.63393 20.7812 3.64246 20.7812H11.0742V27.8906H3.64246C1.63393 27.8906 0 29.5246 0 31.5331V38.4671C0 40.4754 1.63393 42.1094 3.64246 42.1094H11.0742V62.8906H6.1317C2.75064 62.8906 0 65.6413 0 69.0223V69.4531C0 69.7551 0.244863 70 0.546875 70H69.4531C69.7551 70 70 69.7551 70 69.4531V69.0223C70 65.6413 67.2494 62.8906 63.8683 62.8906H58.5156V42.1094H66.3575C68.3659 42.1094 70 40.4754 70 38.4669V31.5329C70 29.5246 68.3661 27.8905 66.3575 27.8905H58.5156V20.7811H66.3575V20.7812ZM51.9531 3.82812C51.9531 2.32039 53.1798 1.09375 54.6875 1.09375C55.4166 1.09375 56.1034 1.3784 56.6206 1.89424C57.1372 2.41227 57.4219 3.099 57.4219 3.82812V6.5625H51.9531V3.82812ZM12.168 3.82812C12.168 3.099 12.4526 2.41227 12.9685 1.89506C13.4865 1.3784 14.1732 1.09375 14.9023 1.09375C16.4101 1.09375 17.6367 2.32039 17.6367 3.82812V6.5625H12.168V3.82812ZM1.09375 17.1388V10.205C1.09375 8.79963 2.23713 7.65625 3.64246 7.65625H66.3577C67.7629 7.65625 68.9062 8.79963 68.9062 10.205V17.1389C68.9062 18.5443 67.7629 19.6876 66.3575 19.6876H3.64246C2.23713 19.6875 1.09375 18.5441 1.09375 17.1388ZM18.7305 27.8906V20.7812H50.8594V27.8906H18.7305ZM12.168 20.7812H17.6367V27.8906H12.168V20.7812ZM12.168 42.1094H17.6367V62.8906H12.168V42.1094ZM50.8594 42.1094V62.8906H18.7305V42.1094H50.8594ZM68.9049 68.9062H1.09512C1.15705 66.1817 3.39268 63.9844 6.1317 63.9844H11.6211H18.1836H51.4062H57.9688H63.8683C66.6075 63.9844 68.8429 66.1817 68.9049 68.9062ZM57.4219 62.8906H51.9531V42.1094H57.4219V62.8906ZM68.9062 31.5331V38.4671C68.9062 39.8724 67.7629 41.0158 66.3575 41.0158H3.64246C2.23713 41.0156 1.09375 39.8722 1.09375 38.4669V31.5329C1.09375 30.1278 2.23713 28.9844 3.64246 28.9844H66.3577C67.7629 28.9844 68.9062 30.1278 68.9062 31.5331ZM57.4219 27.8906H51.9531V20.7812H57.4219V27.8906Z" fill="#E7B14B"/>
<path d="M12.489 8.9976C12.3879 8.84311 12.2158 8.75 12.0312 8.75H7.38281C7.16556 8.75 6.96882 8.87865 6.88173 9.07758L3.05361 17.8276C2.97964 17.9967 2.99591 18.1917 3.09695 18.3462C3.19798 18.5006 3.37011 18.5938 3.55468 18.5938H8.20312C8.42036 18.5938 8.6171 18.4651 8.70419 18.2662L12.5323 9.51617C12.6063 9.34705 12.5899 9.15195 12.489 8.9976ZM7.84546 17.5H4.39085L7.74046 9.84375H11.1951L7.84546 17.5Z" fill="#E7B14B"/>
<path d="M14.2187 18.5938H18.8672C19.0844 18.5938 19.2812 18.4651 19.3683 18.2662L23.1964 9.51617C23.2703 9.34705 23.2541 9.15209 23.153 8.9976C23.052 8.84311 22.8799 8.75 22.6953 8.75H18.0469C17.8296 8.75 17.6329 8.87865 17.5458 9.07758L13.7177 17.8276C13.6437 17.9967 13.66 18.1917 13.761 18.3462C13.862 18.5006 14.0342 18.5938 14.2187 18.5938ZM18.4045 9.84375H21.8591L18.5095 17.5H15.0549L18.4045 9.84375Z" fill="#E7B14B"/>
<path d="M25.1562 18.5938H29.8047C30.0219 18.5938 30.2187 18.4651 30.3058 18.2662L34.1339 9.51617C34.2078 9.34705 34.1916 9.15209 34.0905 8.9976C33.9895 8.84311 33.8174 8.75 33.6328 8.75H28.9844C28.7671 8.75 28.5704 8.87865 28.4833 9.07758L24.6552 17.8276C24.5812 17.9967 24.5975 18.1917 24.6985 18.3462C24.7995 18.5006 24.9717 18.5938 25.1562 18.5938ZM29.342 9.84375H32.7966L29.447 17.5H25.9924L29.342 9.84375Z" fill="#E7B14B"/>
<path d="M36.0937 18.5938H40.7422C40.9594 18.5938 41.1562 18.4651 41.2433 18.2662L45.0714 9.51617C45.1453 9.34705 45.1291 9.15209 45.028 8.9976C44.927 8.84311 44.7549 8.75 44.5703 8.75H39.9219C39.7046 8.75 39.5079 8.87865 39.4208 9.07758L35.5927 17.8276C35.5187 17.9967 35.535 18.1917 35.636 18.3462C35.737 18.5006 35.9092 18.5938 36.0937 18.5938ZM40.2795 9.84375H43.7341L40.3845 17.5H36.9299L40.2795 9.84375Z" fill="#E7B14B"/>
<path d="M46.7578 18.5938H51.4062C51.6235 18.5938 51.8202 18.4651 51.9073 18.2662L55.7355 9.51617C55.8094 9.34705 55.7931 9.15209 55.6921 8.9976C55.5911 8.84311 55.4189 8.75 55.2344 8.75H50.5859C50.3687 8.75 50.1719 8.87865 50.0849 9.07758L46.2567 17.8276C46.1828 17.9967 46.199 18.1917 46.3001 18.3462C46.4011 18.5006 46.5732 18.5938 46.7578 18.5938ZM50.9436 9.84375H54.3982L51.0486 17.5H47.594L50.9436 9.84375Z" fill="#E7B14B"/>
<path d="M57.6953 18.5938H62.3437C62.561 18.5938 62.7577 18.4651 62.8448 18.2662L66.673 9.51617C66.7469 9.34705 66.7306 9.15209 66.6296 8.9976C66.5286 8.84311 66.3564 8.75 66.1719 8.75H61.5234C61.3062 8.75 61.1094 8.87865 61.0224 9.07758L57.1942 17.8276C57.1203 17.9967 57.1365 18.1917 57.2376 18.3462C57.3386 18.5006 57.5107 18.5938 57.6953 18.5938ZM61.8811 9.84375H65.3357L61.9861 17.5H58.5315L61.8811 9.84375Z" fill="#E7B14B"/>
<path d="M12.0312 30.0781H7.38281C7.16556 30.0781 6.96882 30.2068 6.88173 30.4057L3.05361 39.1557C2.97964 39.3248 2.99591 39.5198 3.09695 39.6743C3.19798 39.8288 3.37011 39.9219 3.55468 39.9219H8.20312C8.42036 39.9219 8.6171 39.7932 8.70419 39.5943L12.5323 30.8443C12.6063 30.6752 12.59 30.4802 12.489 30.3257C12.3879 30.1712 12.2158 30.0781 12.0312 30.0781ZM7.84546 38.8281H4.39085L7.74046 31.1719H11.1951L7.84546 38.8281Z" fill="#E7B14B"/>
<path d="M22.6953 30.0781H18.0469C17.8296 30.0781 17.6329 30.2068 17.5458 30.4057L13.7177 39.1557C13.6437 39.3248 13.66 39.5198 13.761 39.6743C13.862 39.8288 14.0342 39.9219 14.2187 39.9219H18.8672C19.0844 39.9219 19.2812 39.7932 19.3683 39.5943L23.1964 30.8443C23.2703 30.6752 23.2541 30.4802 23.153 30.3257C23.052 30.1712 22.8799 30.0781 22.6953 30.0781ZM18.5095 38.8281H15.0549L18.4045 31.1719H21.8591L18.5095 38.8281Z" fill="#E7B14B"/>
<path d="M33.6328 30.0781H28.9844C28.7671 30.0781 28.5704 30.2068 28.4833 30.4057L24.6552 39.1557C24.5812 39.3248 24.5975 39.5198 24.6985 39.6743C24.7995 39.8288 24.9717 39.9219 25.1562 39.9219H29.8047C30.0219 39.9219 30.2187 39.7932 30.3058 39.5943L34.1339 30.8443C34.2078 30.6752 34.1916 30.4802 34.0905 30.3257C33.9895 30.1712 33.8174 30.0781 33.6328 30.0781ZM29.447 38.8281H25.9924L29.342 31.1719H32.7966L29.447 38.8281Z" fill="#E7B14B"/>
<path d="M44.5703 30.0781H39.9219C39.7046 30.0781 39.5079 30.2068 39.4208 30.4057L35.5927 39.1557C35.5187 39.3248 35.535 39.5198 35.636 39.6743C35.737 39.8288 35.9092 39.9219 36.0937 39.9219H40.7422C40.9594 39.9219 41.1562 39.7932 41.2433 39.5943L45.0714 30.8443C45.1453 30.6752 45.1291 30.4802 45.028 30.3257C44.927 30.1712 44.7549 30.0781 44.5703 30.0781ZM40.3845 38.8281H36.9299L40.2795 31.1719H43.7341L40.3845 38.8281Z" fill="#E7B14B"/>
<path d="M55.2344 30.0781H50.5859C50.3687 30.0781 50.1719 30.2068 50.0849 30.4057L46.2567 39.1557C46.1828 39.3248 46.199 39.5198 46.3001 39.6743C46.4011 39.8288 46.5732 39.9219 46.7578 39.9219H51.4062C51.6235 39.9219 51.8202 39.7932 51.9073 39.5943L55.7355 30.8443C55.8094 30.6752 55.7931 30.4802 55.6921 30.3257C55.5911 30.1712 55.4189 30.0781 55.2344 30.0781ZM51.0486 38.8281H47.594L50.9436 31.1719H54.3982L51.0486 38.8281Z" fill="#E7B14B"/>
<path d="M57.2376 39.6743C57.3386 39.8288 57.5108 39.9219 57.6953 39.9219H62.3438C62.561 39.9219 62.7578 39.7932 62.8448 39.5943L66.673 30.8443C66.7469 30.6752 66.7307 30.4802 66.6296 30.3257C66.5286 30.1712 66.3565 30.0781 66.1719 30.0781H61.5235C61.3062 30.0781 61.1095 30.2068 61.0224 30.4057L57.1943 39.1557C57.1203 39.3248 57.1367 39.5199 57.2376 39.6743ZM61.8811 31.1719H65.3357L61.9861 38.8281H58.5315L61.8811 31.1719Z" fill="#E7B14B"/>
</svg>
