<svg width="80" height="80" viewBox="0 0 80 80" fill="none" xmlns="http://www.w3.org/2000/svg">
<path d="M16 6.29355C15.6437 6.29355 15.3549 6.58242 15.3549 6.93871V8.35806C15.3549 8.71435 15.6437 9.00322 16 9.00322C16.3563 9.00322 16.6452 8.71435 16.6452 8.35806V6.93871C16.6452 6.58242 16.3563 6.29355 16 6.29355Z" fill="#E7B14B"/>
<path d="M16 21.171C15.6437 21.171 15.3549 21.4598 15.3549 21.8161V23.1968C15.3549 23.5531 15.6437 23.8419 16 23.8419C16.3563 23.8419 16.6452 23.5531 16.6452 23.1968V21.8161C16.6452 21.4598 16.3563 21.171 16 21.171Z" fill="#E7B14B"/>
<path d="M24.1355 14.4226H22.7484C22.3921 14.4226 22.1032 14.7114 22.1032 15.0677C22.1032 15.424 22.3921 15.7129 22.7484 15.7129H24.1355C24.4918 15.7129 24.7806 15.424 24.7806 15.0677C24.7806 14.7114 24.4918 14.4226 24.1355 14.4226Z" fill="#E7B14B"/>
<path d="M9.25809 14.4226H7.87099C7.5147 14.4226 7.22583 14.7114 7.22583 15.0677C7.22583 15.424 7.5147 15.7129 7.87099 15.7129H9.25809C9.61438 15.7129 9.90325 15.424 9.90325 15.0677C9.90325 14.7114 9.61438 14.4226 9.25809 14.4226Z" fill="#E7B14B"/>
<path d="M21.5824 9.29453C21.3377 9.09033 20.9806 9.0955 20.7419 9.30646L20.7161 9.30001L15.9806 14.1645L13.7548 12.0032C13.5189 11.7363 13.1111 11.711 12.8442 11.9469C12.5773 12.1829 12.5519 12.5907 12.7879 12.8576C12.8095 12.8821 12.8329 12.9049 12.8581 12.9258L15.0774 15.0871L14.1935 16.0097C13.9434 16.2613 13.9434 16.6678 14.1935 16.9194C14.4445 17.1723 14.8529 17.174 15.106 16.9231C15.1073 16.9218 15.1085 16.9207 15.1097 16.9194L16.0194 15.9839L16.9871 16.9258C17.1073 17.045 17.2695 17.1123 17.4387 17.1129C17.6111 17.1123 17.7761 17.0424 17.8968 16.9194C18.1497 16.6684 18.1515 16.26 17.9005 16.0069C17.8992 16.0057 17.8981 16.0044 17.8968 16.0032L16.929 15.0613L21.6645 10.2032C21.8927 9.92969 21.856 9.52275 21.5824 9.29453Z" fill="#E7B14B"/>
<path d="M16 4.24838C10.0211 4.24484 5.17127 9.08887 5.16773 15.0677C5.16418 21.0466 10.0082 25.8965 15.9871 25.9C21.966 25.9035 26.8158 21.0595 26.8193 15.0806C26.8193 15.0763 26.8193 15.0721 26.8193 15.0677C26.8087 9.09677 21.971 4.25903 16 4.24838ZM16 24.6032C10.7337 24.6068 6.4616 20.3405 6.45805 15.0742C6.4545 9.8079 10.7208 5.5358 15.9871 5.53226C21.2534 5.52871 25.5255 9.795 25.529 15.0613C25.529 15.0634 25.529 15.0656 25.529 15.0677C25.5255 20.33 21.2622 24.5961 16 24.6032Z" fill="#E7B14B"/>
<path d="M79.3548 38.7322H42.3097C40.7815 38.4656 39.2185 38.4656 37.6903 38.7322H0.645161C0.288871 38.7322 0 39.0211 0 39.3774V43.3774C0 43.7337 0.288871 44.0226 0.645161 44.0226H8.34194V46.8097L1.24516 71.971C1.15 72.3129 1.34887 72.6674 1.69032 72.7645C1.74806 72.7739 1.80677 72.7739 1.86452 72.7645C2.16258 72.7755 2.42935 72.5808 2.50968 72.2935L3.94839 67.1968H20.3484L21.7871 72.2935C21.8674 72.5808 22.1342 72.7755 22.4323 72.7645C22.49 72.7739 22.5487 72.7739 22.6065 72.7645C22.9479 72.6674 23.1468 72.3129 23.0516 71.971L15.9548 46.8097V44.0226H29.6774C28.8131 44.9058 27.6294 45.4034 26.3935 45.4032H24.4581C24.1018 45.4032 23.8129 45.6921 23.8129 46.0484C23.8129 46.4047 24.1018 46.6935 24.4581 46.6935H26.0129C26.6682 48.1332 27.1366 49.651 27.4065 51.2097C28.0516 55.371 30.9226 58.171 34.4645 58.171H35.7548L28.5548 77.7387C28.4482 78.0348 28.571 78.3648 28.8452 78.5193C28.939 78.5747 29.046 78.6035 29.1548 78.6032C29.3534 78.6043 29.5415 78.5139 29.6645 78.358L39.9871 65.1903L50.3226 78.358C50.4456 78.5139 50.6337 78.6043 50.8323 78.6032C50.9411 78.6035 51.0481 78.5747 51.1419 78.5193C51.4163 78.3648 51.5389 78.0348 51.4323 77.7387L44.3097 58.1387H45.6C49.1419 58.1387 51.9806 55.3387 52.6581 51.1774C52.9279 49.6187 53.3963 48.101 54.0516 46.6613H55.6065C55.9627 46.6613 56.2516 46.3724 56.2516 46.0161C56.2516 45.6598 55.9627 45.371 55.6065 45.371H53.671C52.4176 45.3972 51.2079 44.9101 50.3226 44.0226H64.071V46.8097L56.9742 71.971C56.879 72.3129 57.0779 72.6674 57.4194 72.7645C57.4771 72.7739 57.5358 72.7739 57.5935 72.7645C57.8916 72.7755 58.1584 72.5808 58.2387 72.2935L59.6774 67.1968H76.129L77.5677 72.2935C77.6481 72.5808 77.9148 72.7755 78.2129 72.7645C78.2706 72.7739 78.3294 72.7739 78.3871 72.7645C78.7308 72.6705 78.9331 72.3155 78.839 71.9719C78.839 71.9716 78.8389 71.9713 78.8387 71.971L71.7419 46.8097V44.0226H79.3548C79.7111 44.0226 80 43.7337 80 43.3774V39.3774C80 39.0211 79.7111 38.7322 79.3548 38.7322ZM20 65.958H4.24516L9.44516 47.5451H11.4839V55.6677C11.4839 56.024 11.7727 56.3129 12.129 56.3129C12.4853 56.3129 12.7742 56.024 12.7742 55.6677V47.5451H14.7806L20 65.958ZM9.63226 46.2548V44.0226H14.6258V46.2548H9.63226ZM1.29032 42.7322V40.0226H33.8645C32.5982 40.6703 31.4953 41.5968 30.6387 42.7322H1.29032ZM36.2387 60.4032L38.2387 62.9451H35.3097L36.2387 60.4032ZM31.1484 74.3774L34.8387 64.2355H39.1032L31.1484 74.3774ZM39.8645 62.9451L36.7742 58.9774L37.0774 58.1387H42.9484L43.2258 58.9774L40.1097 62.9451H39.8645ZM48.8516 74.3774L40.8839 64.2355H45.1613L48.8516 74.3774ZM44.6903 62.9451H41.7613L43.7613 60.4032L44.6903 62.9451ZM52.6516 46.6161C52.0526 48.0122 51.6195 49.4739 51.3613 50.971C50.9226 53.6806 49.1419 56.8484 45.5548 56.8484H34.4258C30.8645 56.8484 29.0839 53.6806 28.6194 50.971C28.3611 49.4739 27.9281 48.0122 27.329 46.6161C29.0073 46.3393 30.4829 45.3485 31.3742 43.9C32.9161 41.4226 36.2903 39.8226 39.9806 39.8226C43.671 39.8226 47.0774 41.4226 48.5871 43.9C49.4826 45.3532 50.9663 46.3447 52.6516 46.6161ZM75.729 65.958L60.0129 65.9709L65.2194 47.558H67.2258V55.6677C67.2258 56.024 67.5147 56.3129 67.871 56.3129C68.2273 56.3129 68.5161 56.024 68.5161 55.6677V47.5451H70.529L75.729 65.958ZM65.3419 46.2677V44.0226H70.3355V46.2677H65.3419ZM78.7097 42.7322H49.3677C48.5111 41.5968 47.4082 40.6703 46.1419 40.0226H78.7097V42.7322Z" fill="#E7B14B"/>
<path d="M77.7677 18.2484H73.3032V1.9645C73.3093 1.9195 73.3093 1.87402 73.3032 1.82902C73.3054 1.79257 73.3054 1.75579 73.3032 1.71934C73.3032 1.71934 73.2645 1.66773 73.2451 1.63547C73.2208 1.59257 73.1903 1.55353 73.1548 1.51934C73.1321 1.4995 73.1058 1.48418 73.0774 1.47418C73.0406 1.4424 72.9993 1.41628 72.9548 1.39676H72.8193H72.7225H57.4193H57.3354H57.1935C57.149 1.41628 57.1077 1.4424 57.0709 1.47418C57.0419 1.48273 57.0153 1.49821 56.9935 1.51934C56.96 1.55515 56.9296 1.59402 56.9032 1.63547L56.8451 1.71934C56.8451 1.75805 56.8451 1.79676 56.8451 1.82902C56.8421 1.87418 56.8421 1.91934 56.8451 1.9645V18.2484H55.2967V5.91934C55.2967 5.56305 55.0079 5.27418 54.6516 5.27418H45.0064C44.6501 5.27418 44.3612 5.56305 44.3612 5.91934V18.2484H40.5419C40.1856 18.2484 39.8967 18.5372 39.8967 18.8935V21.6548C39.8967 22.0111 40.1856 22.3 40.5419 22.3H45.7032V25.9645C45.7032 26.3208 45.992 26.6097 46.3483 26.6097C46.7046 26.6097 46.9935 26.3208 46.9935 25.9645V22.3H71.3419V25.9645C71.3416 26.311 71.6151 26.5958 71.9613 26.6097C72.3175 26.6097 72.6064 26.3208 72.6064 25.9645V22.3H77.7677C78.124 22.3 78.4129 22.0111 78.4129 21.6548V18.8935C78.4129 18.5372 78.124 18.2484 77.7677 18.2484ZM67.9161 14.6355L71.1419 18.2484H58.8645L62.1096 14.6355H67.9161ZM62.4709 13.3322V7.52579H67.5806V13.3322H62.4709ZM68.8774 13.7516V7.13224L71.9935 3.66773V17.2161L68.8774 13.7516ZM71.2 2.62902L67.9742 6.23547H62.1096L58.8838 2.62902H71.2ZM58.0645 3.66773L61.1871 7.13224V13.7451L58.0645 17.2097V3.66773ZM45.6516 6.5645H53.929V13.3L51.5161 10.6742C51.2935 10.4311 50.9235 10.395 50.658 10.5903L45.6516 14.2613V6.5645ZM53.929 15.2161V18.2613H45.6516V15.8613L50.9548 11.9903L53.929 15.2161ZM77.0967 21.0097H41.1871V19.5387H77.0967V21.0097Z" fill="#E7B14B"/>
</svg>
