<svg width="80" height="80" viewBox="0 0 80 80" fill="none" xmlns="http://www.w3.org/2000/svg">
<g clip-path="url(#clip0)">
<path d="M56.6984 41.9924C59.1961 40.3059 60.6929 37.4887 60.6925 34.4748C60.6925 34.1236 60.9772 33.8388 61.3285 33.8388C61.6797 33.8388 61.9645 34.1236 61.9645 34.4748C61.9656 37.9118 60.259 41.1246 57.4107 43.0481C57.1191 43.2448 56.7233 43.168 56.5266 42.8764C56.33 42.5848 56.4068 42.1891 56.6984 41.9924Z" fill="#E7B14B"/>
<path d="M7.38255 56.4042L9.00435 49.8025C9.04362 49.6418 9.14396 49.5025 9.2842 49.4145L29.6936 36.6945L29.0576 35.645C28.9682 35.5032 28.9385 35.3317 28.9749 35.168C29.0175 35.0036 29.1194 34.861 29.2611 34.7674L32.2503 32.9102C32.226 25.3232 38.3568 19.1528 45.9438 19.1285C46.7474 19.1259 47.5496 19.1938 48.3412 19.3315C48.6925 19.3931 48.9275 19.7276 48.8659 20.0788C48.8044 20.4301 48.4699 20.6651 48.1186 20.6035C41.3431 19.4024 34.8769 23.9213 33.6758 30.6968C33.5258 31.5425 33.4638 32.4016 33.4905 33.26C33.4977 33.4864 33.3838 33.6997 33.1916 33.8197L30.4568 35.5115L31.0928 36.5673C31.2898 36.8581 31.2136 37.2535 30.9228 37.4505C30.916 37.4551 30.909 37.4597 30.902 37.464L10.181 50.3558L8.77539 56.0799L14.4994 57.2883L19.8928 53.9365L20.7132 50.4194C20.7525 50.2552 20.8555 50.1134 20.9994 50.0251C21.1412 49.9358 21.3128 49.906 21.4764 49.9424L24.7327 50.6802L25.496 47.3921C25.5747 47.0497 25.916 46.836 26.2584 46.9149C26.2587 46.9149 26.2588 46.915 26.2592 46.915L29.8208 47.7355L35.2395 44.3647C35.3823 44.2775 35.5537 44.25 35.7165 44.2883C35.8797 44.326 36.0214 44.4267 36.1109 44.5682L36.7469 45.624L39.5008 43.9131C39.7843 43.7058 40.1823 43.7675 40.3896 44.051C40.5969 44.3345 40.5352 44.7324 40.2517 44.9398C40.2273 44.9576 40.2017 44.9736 40.1749 44.988H40.1686L36.8741 47.0359C36.5763 47.2222 36.1839 47.1319 35.9975 46.8343C35.9972 46.8336 35.9967 46.833 35.9964 46.8324L35.3604 45.783L30.2723 48.963C30.1288 49.0541 29.9547 49.0838 29.789 49.0457L26.609 48.3079L25.8776 51.4879C25.8399 51.6546 25.7367 51.7989 25.5914 51.8886L25.426 51.9904C25.2815 52.0792 25.1075 52.1068 24.9426 52.0667L21.7626 51.3353L21.0312 54.5153C20.9919 54.6796 20.8889 54.8214 20.745 54.9096L14.9383 58.4522C14.837 58.515 14.7203 58.5479 14.6012 58.5476C14.5568 58.5538 14.512 58.5538 14.4676 58.5476L7.86591 57.1802C7.69704 57.1441 7.54997 57.0407 7.45886 56.894C7.36823 56.7477 7.34073 56.571 7.38255 56.4042Z" fill="#E7B14B"/>
<path d="M14.843 48.8231L28.7905 40.1543C29.0685 39.9395 29.4679 39.9909 29.6827 40.2688C29.8975 40.5467 29.8461 40.9462 29.5682 41.161C29.534 41.1874 29.4971 41.2103 29.4583 41.2292L15.5171 49.9043C15.2185 50.0905 14.8256 49.9994 14.6394 49.7008C14.4532 49.4022 14.5444 49.0091 14.843 48.8231Z" fill="#E7B14B"/>
<path d="M45.1931 50.4639C44.8418 50.4639 44.5571 50.1792 44.5571 49.8279V46.3108C38.1 42.3202 36.1006 33.8509 40.091 27.3938C44.0815 20.9368 52.551 18.9374 59.008 22.9278C61.281 24.3324 63.0952 26.3692 64.2285 28.7889C71.2246 24.5352 73.4477 15.4155 69.1941 8.41928C64.9405 1.42307 55.8207 -0.799927 48.8245 3.45367C44.4019 6.1427 41.7019 10.9436 41.7012 16.1195C41.7012 16.4708 41.4165 16.7555 41.0652 16.7555C40.714 16.7555 40.4292 16.4708 40.4292 16.1195C40.4205 7.22581 47.6232 0.00891231 56.517 8.24653e-06C65.4107 -0.00889582 72.6277 7.19386 72.6366 16.0876C72.6424 21.7913 69.6304 27.0727 64.7184 29.9717C65.259 31.4643 65.5344 33.0398 65.5325 34.6273C65.5172 39.3863 63.0511 43.8018 59.0071 46.3107V49.8278C59.0071 50.179 58.7223 50.4638 58.3711 50.4638H57.0991V56.4677C57.1 56.6367 57.0337 56.7992 56.9146 56.9192L54.625 59.2089L56.9146 61.4985C57.0337 61.6185 57.1 61.781 57.0991 61.95V62.1408C57.1 62.3098 57.0337 62.4723 56.9146 62.5924L54.625 64.882L56.9146 67.178C57.0321 67.2964 57.0984 67.4564 57.0991 67.6232V74.492C57.1 74.658 57.0361 74.8178 56.921 74.9372L52.2463 79.8027C52.1269 79.928 51.9616 79.9992 51.7884 79.9998C51.6153 79.9992 51.4499 79.928 51.3305 79.8027L46.5795 74.9372C46.4644 74.8178 46.4005 74.658 46.4015 74.492V71.7063H43.8129C43.4617 71.7063 43.1769 71.4216 43.1769 71.0703V65.9823C43.1769 65.6311 43.4617 65.3463 43.8129 65.3463H46.4333V64.176H43.8129C43.4617 64.176 43.1769 63.8913 43.1769 63.54V60.996C43.1769 60.6448 43.4617 60.36 43.8129 60.36H46.4333V50.4638H45.1931V50.4639ZM47.0693 61.6703H44.4489V62.9424H47.0693C47.4205 62.9424 47.7053 63.2271 47.7053 63.5784V66.0079C47.7053 66.3591 47.4205 66.6439 47.0693 66.6439H44.4489V70.4599H47.0693C47.4205 70.4599 47.7053 70.7447 47.7053 71.0959V74.276L51.8139 78.4863L55.8589 74.276V67.9159L53.3148 65.3719C53.0682 65.1238 53.0682 64.7232 53.3148 64.4751L55.7062 62.0837L53.3148 59.6987C53.0655 59.4513 53.0638 59.0487 53.3112 58.7993C53.3125 58.798 53.3136 58.7967 53.3148 58.7956L55.8589 56.2516V49.8915C55.8589 49.5403 56.1436 49.2555 56.4949 49.2555H57.7669V46.0119C57.7683 45.7861 57.8893 45.5778 58.0849 45.465C61.9166 43.227 64.2781 39.1284 64.2923 34.691C64.2897 33.316 64.0576 31.951 63.6054 30.6524C61.3992 31.7101 58.9794 32.2454 56.533 32.217C56.1896 32.217 55.8525 32.217 55.5154 32.1788C54.5121 34.2336 52.0331 35.0862 49.9782 34.0829C47.9234 33.0796 47.0709 30.6006 48.0742 28.5456C49.0775 26.4909 51.5564 25.6383 53.6114 26.6416C55.0367 27.3375 55.9391 28.7864 55.9352 30.3726C55.9333 30.5557 55.9183 30.7384 55.8907 30.9195C56.1069 30.9195 56.3168 30.9195 56.5267 30.9195C58.8042 30.9224 61.0514 30.3955 63.0902 29.3804C60.1918 23.1356 52.7798 20.4229 46.535 23.3213C40.2903 26.2198 37.5775 33.6318 40.476 39.8765C41.5497 42.1898 43.307 44.1182 45.5111 45.4013C45.7066 45.5142 45.8276 45.7225 45.8291 45.9483V49.1919H47.0693C47.4205 49.1919 47.7053 49.4767 47.7053 49.8279V61.0343C47.7053 61.3856 47.4205 61.6703 47.0693 61.6703ZM51.4439 30.7448C51.4442 30.7437 51.4445 30.7424 51.445 30.7413C51.5456 30.4047 51.9 30.2136 52.2365 30.314C52.2376 30.3144 52.2389 30.3147 52.24 30.3152C53.0158 30.5471 53.8092 30.7152 54.6123 30.8176C54.6369 30.6704 54.6517 30.5215 54.6568 30.3724C54.6737 28.7638 53.3834 27.446 51.7746 27.4291C50.1658 27.4123 48.8482 28.7026 48.8313 30.3113C48.8145 31.9201 50.1048 33.2378 51.7135 33.2546C52.6661 33.2646 53.5634 32.8081 54.1162 32.0324C53.357 31.9208 52.6066 31.7549 51.8711 31.5363C51.5345 31.4358 51.3432 31.0814 51.4439 30.7448Z" fill="#E7B14B"/>
</g>
<defs>
<clipPath id="clip0">
<rect width="80" height="80" fill="white" transform="matrix(-1 0 0 1 80 0)"/>
</clipPath>
</defs>
</svg>
