<svg width="14" height="14" viewBox="0 0 14 14" fill="none" xmlns="http://www.w3.org/2000/svg">
<g clip-path="url(#clip0)">
<path d="M13.7259 1.14705C13.5006 0.940688 13.1805 0.871918 12.8904 0.967539L0.580541 5.02538C0.245061 5.13596 0.0175609 5.43543 0.000963249 5.78824C-0.0156071 6.14109 0.182772 6.4606 0.506358 6.60221L3.55067 7.93418C3.56552 8.00309 4.43946 12.0564 4.46918 12.1942C4.50732 12.3712 4.59715 12.5288 4.78743 12.5773C4.9799 12.6263 5.11589 12.5211 5.25949 12.4136C5.33942 12.3538 7.51863 10.722 7.51863 10.722L10.1597 12.8832C10.3136 13.0092 10.5016 13.0748 10.6933 13.0748C10.7846 13.0748 10.8767 13.0599 10.9664 13.0295C11.2443 12.9353 11.4504 12.7084 11.5176 12.4227L13.9776 1.96364C14.0475 1.66628 13.9511 1.35341 13.7259 1.14705ZM5.45629 8.69743C5.45478 8.70098 5.45331 8.705 5.45191 8.70981L4.94266 10.489L4.37435 7.85321L8.28224 5.68198L5.55002 8.53881C5.50698 8.58381 5.47532 8.63823 5.45629 8.69743ZM5.61792 11.118L5.84922 10.3099L6.07046 9.53691L6.86318 10.1856L5.61792 11.118ZM13.1772 1.77536L10.7172 12.2344C10.716 12.2396 10.7143 12.2468 10.7023 12.2508C10.6904 12.2549 10.6846 12.2503 10.6805 12.2469L7.79049 9.88196C7.7904 9.8819 7.79035 9.88182 7.79027 9.88177L6.45127 8.78605L10.7531 4.28806C10.8936 4.14114 10.9056 3.91361 10.7814 3.75269C10.6571 3.59175 10.4339 3.54578 10.2563 3.64455L3.88651 7.18362L0.835959 5.84889C0.826662 5.84484 0.821549 5.84257 0.822287 5.82685C0.823026 5.81118 0.82833 5.80941 0.837955 5.80623L13.1478 1.74842C13.1537 1.74648 13.1605 1.74424 13.1704 1.75326C13.1803 1.76234 13.1786 1.76923 13.1772 1.77536Z" fill="white"/>
</g>
<defs>
<clipPath id="clip0">
<rect width="14" height="14" fill="white"/>
</clipPath>
</defs>
</svg>
