<svg width="14" height="14" viewBox="0 0 14 14" fill="none" xmlns="http://www.w3.org/2000/svg">
<path d="M10.2103 0H3.78967C1.70001 0 0 1.70001 0 3.78967V10.2104C0 12.3 1.70001 14 3.78967 14H10.2104C12.3 14 14 12.3 14 10.2104V3.78967C14 1.70001 12.3 0 10.2103 0V0ZM13.1792 10.2104C13.1792 11.8474 11.8474 13.1792 10.2103 13.1792H3.78967C2.15257 13.1792 0.820738 11.8474 0.820738 10.2104V3.78967C0.820738 2.15257 2.15257 0.820738 3.78967 0.820738H10.2104C11.8474 0.820738 13.1792 2.15257 13.1792 3.78967V10.2104Z" fill="white"/>
<path d="M7.00001 3.17198C4.8892 3.17198 3.172 4.88919 3.172 6.99999C3.172 9.1108 4.8892 10.828 7.00001 10.828C9.11081 10.828 10.828 9.1108 10.828 6.99999C10.828 4.88919 9.11081 3.17198 7.00001 3.17198ZM7.00001 10.0073C5.34187 10.0073 3.99274 8.65824 3.99274 6.99999C3.99274 5.34185 5.34187 3.99272 7.00001 3.99272C8.65825 3.99272 10.0073 5.34185 10.0073 6.99999C10.0073 8.65824 8.65825 10.0073 7.00001 10.0073Z" fill="white"/>
<path d="M10.9196 1.81248C10.2958 1.81248 9.78845 2.31995 9.78845 2.94362C9.78845 3.56739 10.2958 4.07486 10.9196 4.07486C11.5434 4.07486 12.0508 3.56739 12.0508 2.94362C12.0508 2.31984 11.5434 1.81248 10.9196 1.81248ZM10.9196 3.25401C10.7485 3.25401 10.6092 3.11473 10.6092 2.94362C10.6092 2.7724 10.7485 2.63322 10.9196 2.63322C11.0908 2.63322 11.2301 2.7724 11.2301 2.94362C11.2301 3.11473 11.0908 3.25401 10.9196 3.25401Z" fill="white"/>
</svg>
